<svg xmlns="http://www.w3.org/2000/svg" id="Group_217" width="144.465" height="137.915" data-name="Group 217" viewBox="0 0 144.465 137.915">
    <defs>
        <style>
            .cls-1{fill:#06aaca}.cls-2{clip-path:url(#clip-path)}.cls-3{fill:#4b2c27}.cls-10,.cls-11,.cls-12,.cls-15,.cls-16,.cls-17,.cls-18,.cls-19,.cls-20,.cls-3,.cls-4,.cls-5,.cls-6,.cls-7,.cls-8,.cls-9{stroke:rgba(0,0,0,0)}.cls-4{fill:#f78d69;opacity:.25}.cls-5{fill:#330e01;opacity:.47}.cls-6{fill:#f8db03}.cls-7{fill:#cc050f}.cls-11,.cls-7{opacity:.16}.cls-8{fill:#eda87a}.cls-9{fill:#ec6f69}.cls-10{fill:#f0880d}.cls-11{fill:#890310}.cls-12{fill:#f8bb8e}.cls-13{opacity:.61}.cls-14{fill:rgba(0,0,0,0);stroke:#5b2602;stroke-linecap:round;stroke-linejoin:round;stroke-width:2px}.cls-15{fill:#401215}.cls-16{fill:#fff}.cls-17{fill:#f987b6}.cls-18{fill:#3d1501}.cls-19{fill:#b2221b}.cls-20{fill:#990441;opacity:.28}
        </style>
        <clipPath id="clip-path">
            <circle id="Ellipse_19" cx="68.958" cy="68.958" r="68.958" class="cls-1" data-name="Ellipse 19"/>
        </clipPath>
    </defs>
    <circle id="Ellipse_20" cx="68.958" cy="68.958" r="68.958" class="cls-1" data-name="Ellipse 20"/>
    <g id="Mask_Group_5" class="cls-2" data-name="Mask Group 5">
        <g id="Group_214" data-name="Group 214" transform="rotate(-39 94.338 54.593)">
            <g id="Group_157" data-name="Group 157">
                <path id="Path_43" d="M32.565 11.4c-.036 4.294-2.489 9.337-5.306 12.96-2.406 3.094-5.074 5.146-6.726 4.8a4.95 4.95 0 0 1-2.273-1.585C15.1 24.308 10.707 17.233 0 17.3c0 0 6.814-8.887.924-16.08 0 0 2.288-1.026 8.717-1.2.826-.02 1.729-.031 2.7-.02 2.083.02 4.509.128 7.306.359 2.247.185 4.1.385 5.644.631 8.192 1.297 7.32 3.71 7.274 10.41z" class="cls-3" data-name="Path 43" transform="translate(116.196 36.664)"/>
                <path id="Path_44" d="M14.3 10.411c-.062 7.963-8.451 18.506-12.032 17.762A4.95 4.95 0 0 1 0 26.588 31.29 31.29 0 0 0 8.8 13.32C11.651 4.212 7.244.19 7.034 0c8.189 1.293 7.317 3.709 7.266 10.411z" class="cls-4" data-name="Path 44" transform="translate(134.456 37.659)"/>
                <path id="Path_45" d="M27.259 24.34c-2.406 3.094-5.074 5.146-6.726 4.8a4.95 4.95 0 0 1-2.273-1.585C15.1 24.284 10.707 17.208 0 17.276c0 0 6.814-8.887.924-16.08C.924 1.2 3.212.17 9.641 0c-1.016.652-1.93 2.329-1.93 6.275 0 8.876 9.769 12.011 13.083 16.69 1.668 2.355 4.285 2.155 6.465 1.375z" class="cls-5" data-name="Path 45" transform="translate(116.196 36.689)"/>
                <path id="Path_46" d="M4.772 19.526A3.6 3.6 0 0 1 0 19.931 39.064 39.064 0 0 0 1.283.752a2.744 2.744 0 0 1 2.791-.58c1.1.416 2.4 1.673 3.648 4.71 2.103 5.11.138 11.965-2.95 14.644z" class="cls-6" data-name="Path 46" transform="translate(111.906 35.567)"/>
                <path id="Path_47" d="M4.772 19.526A3.6 3.6 0 0 1 0 19.931 39.064 39.064 0 0 0 1.283.752a2.744 2.744 0 0 1 2.791-.58c-.39.41-.528 1.324.026 3.181 1.488 4.967 1.462 9.179-.606 13.207-.979 1.914-.082 2.693 1.278 2.966z" class="cls-7" data-name="Path 47" transform="translate(111.906 35.567)"/>
                <path id="Path_48" d="M112.984 52.907c-4.592 12.524-20 28.81-26.957 38.183s-3.089 22.6-13.448 23.863c-6.311.769-8.281-5.182-9.343-9.831-.677-2.986-.985-5.439-1.821-5.234-2.135.524-3.289 10.508-14.146 3.961s-8.712-11.1-6.1-15.551c1.637-2.791-.913-.755-4.751.785a13.367 13.367 0 0 1-7.609 1.088c-6.937-1.5-10.195-8.3-6.1-11.118s2.76-1.642-1.534-1.729-8.03.087-10.821-5.038-.826-7.666 2.7-9.077-5.87.672-9.353-1.036-6.393-9.9.4-13.16 8.055-3.5 18.542-17.491c9.728-12.97 32.334-45.038 66.11-25.212.03.016.077.046.139.082a69.009 69.009 0 0 1 8.04 5.593c13.291 10.625 20.644 28.398 16.052 40.922z" class="cls-3" data-name="Path 48"/>
                <path id="Path_49" d="M88.9 6.392S58.613 1.23 35.4 40.132C14.833 74.6 54.714 71.527 36.418 89.084a13.367 13.367 0 0 1-7.609 1.088c-6.937-1.5-10.195-8.3-6.1-11.118s2.76-1.642-1.534-1.729-8.03.087-10.821-5.038-.826-7.666 2.7-9.077-5.87.672-9.353-1.036-6.393-9.9.4-13.16 8.055-3.5 18.542-17.491c9.728-12.97 32.334-45.038 66.11-25.212.039.014.085.045.147.081z" class="cls-5" data-name="Path 49"/>
                <path id="Path_50" d="M49.748 46.515c-4.592 12.524-20 28.81-26.957 38.183s-3.089 22.6-13.448 23.863c-6.311.769-8.281-5.182-9.343-9.831 2.15 3.017 6.193 8.8 10.862 6.725 6.952-3.089-1.755-10.5 15.223-30.8s23.094-25.547 19.6-45.3C42.407 10.831 27.455 1.139 25.664 0A69.013 69.013 0 0 1 33.7 5.592c13.287 10.626 20.64 28.399 16.048 40.923z" class="cls-4" data-name="Path 50" transform="translate(63.236 6.392)"/>
                <path id="Path_51" d="M22.977 7.342a8.552 8.552 0 0 1-1.688 4.72C19.005 15 14.639 16.08 9.3 15.9 1.709 15.649.15 11.477 0 9.512S16.538 0 16.538 0a9.263 9.263 0 0 1 3.771 1.462 6.137 6.137 0 0 1 2.668 5.88z" class="cls-8" data-name="Path 51" transform="translate(77.288 76.35)"/>
                <path id="Path_52" d="M15.1 5.439s-4.865 17.651-6.83 17.81-6.326-.734-7.758-8.189C-.791 8.261.251 2.761 5.279.714a10.687 10.687 0 0 1 1.57-.5 6.274 6.274 0 0 1 7.106 2.848A9.252 9.252 0 0 1 15.1 5.439z" class="cls-8" data-name="Path 52" transform="translate(19.743 20.47)"/>
                <g id="Group_146" data-name="Group 146" transform="translate(24.435 28.349)">
                    <path id="Path_53" d="M5.417.356S10.2.086 9.848 4.145 1.568 8.017.189 3.259 5.417.356 5.417.356z" class="cls-9" data-name="Path 53" transform="translate(58.262 52.276)"/>
                    <path id="Path_54" d="M6.72 3.922S6.243-.847 2.289.133s-2.541 8.78 2.374 9.4S6.72 3.922 6.72 3.922z" class="cls-9" data-name="Path 54"/>
                </g>
                <path id="Path_55" d="M21.288 12.062C19.005 15 14.639 16.08 9.3 15.9 1.709 15.649.15 11.477 0 9.512S16.538 0 16.538 0a9.263 9.263 0 0 1 3.771 1.462c-.656 1.852-2.868 5.813-9.969 7.9-8.799 2.572 3.042 8.888 10.948 2.7z" class="cls-7" data-name="Path 55" transform="translate(77.288 76.35)"/>
                <path id="Path_56" d="M15.1 4.725s-4.865 17.65-6.83 17.809S1.944 21.8.512 14.345C-.791 7.547.251 2.047 5.279 0 .071 7.645 5.5 21.1 8.465 11.955c1.672-5.172 3.812-8.04 5.49-9.605A9.252 9.252 0 0 1 15.1 4.725z" class="cls-7" data-name="Path 56" transform="translate(19.743 21.184)"/>
                <path id="Path_57" d="M42.741 37.445S26.061 57.64 9.412 43.4a25.851 25.851 0 0 1-8.065-12.322C-2.558 18.287 3.27 4.747 3.27 4.747s15.572-12 32.108 2.15A28.422 28.422 0 0 1 43.2 18.159a24.113 24.113 0 0 1-.459 19.286z" class="cls-10" data-name="Path 57" transform="translate(.336 78.216)"/>
                <path id="Path_58" d="M41.546 17.743s.17 5.649-5.464 5.136-5.187-5.136-5.187-5.136-4.551 3.361-8.4-3.961c-3.083-5.87-16.387 4.823-21.148 17.3C-2.558 18.287 3.27 4.747 3.27 4.747s15.572-12 32.108 2.15A28.422 28.422 0 0 1 43.2 18.159z" class="cls-11" data-name="Path 58" transform="translate(.336 78.216)"/>
                <path id="Path_59" d="M9.5 2.943S4.351-2.971 1 1.969 3.806 9.6 3.806 9.6s-4.733 3.616-1.3 7.819 7.064-.286 7.064-.286-.848 5.933 3.809 6.4 3.859-5.745 3.859-5.745 4.073 2.639 6.067-.928-3.727-6.773-3.727-6.773z" class="cls-6" data-name="Path 59" transform="translate(23.272 75.226)"/>
                <path id="Path_60" d="M16.3 9.256l-1.739 2.032-4.3 5.033C-.23 16.213 0 7.547 0 7.547L6.454 0C7.845 2.55 16.3 9.256 16.3 9.256z" class="cls-8" data-name="Path 60" transform="translate(28.121 74.231)"/>
                <path id="Path_61" d="M10.252 16.32C-.23 16.213 0 7.547 0 7.547L6.455 0C7.846 2.55 16.3 9.256 16.3 9.256l-1.739 2.032a33.112 33.112 0 0 1-5.541-3.71c-4.366-3.643-10.677 6.916 1.232 8.742z" class="cls-7" data-name="Path 61" transform="translate(27.813 74.231)"/>
                <path id="Path_62" d="M.071 0A1.478 1.478 0 0 1 0 .5z" class="cls-12" data-name="Path 62" transform="translate(94.036 31.266)"/>
                <path id="Path_63" d="M76.67 47.685a34.1 34.1 0 0 1-2.1 3.894c-3.992 6.5-13.9 18.922-31.565 19.574a88.544 88.544 0 0 1-17.2-.7C14.824 68.66 9.924 63.8 5.788 55.053-.066 42.683-7.86 24.972 18.589 0A40.924 40.924 0 0 1 30.3 7.178c5.257 4.782 5.744 4.212 20.8-4.778-.246.288-8.106 9.477-10.036 11.729-1.955 2.294 13.7 15.115 16.177 13.551 2.309-1.468 9.605-9.046 10.421-11.77-.3 2.047-1.529 9.789-3.043 12.417-1.744 3.037-1.79 4.412 4.238 9.287s7.813 10.071 7.813 10.071z" class="cls-12" data-name="Path 63" transform="translate(26.371 15.863)"/>
                <path id="Path_64" d="M.071 0A1.478 1.478 0 0 1 0 .5z" class="cls-7" data-name="Path 64" transform="translate(94.036 31.266)"/>
                <path id="Path_65" d="M76.67 47.685a34.1 34.1 0 0 1-2.1 3.894c-2.34-5.172-7.424-14.981-13.314-17.511-8.1-3.479-19.789-14.428-22.919-16.793s-7.331-11.914-17.177.143-17.44 22.745-6.834 41.945a27.774 27.774 0 0 0 11.483 11.088C14.824 68.66 9.924 63.8 5.788 55.053-.066 42.683-7.86 24.972 18.589 0A40.924 40.924 0 0 1 30.3 7.178c5.257 4.782 5.744 4.212 20.8-4.778-.246.288-8.106 9.477-10.036 11.729-1.955 2.294 13.7 15.115 16.177 13.551 2.309-1.468 9.605-9.046 10.421-11.77-.3 2.047-1.529 9.789-3.043 12.417-1.744 3.037-1.79 4.412 4.238 9.287s7.813 10.071 7.813 10.071z" class="cls-7" data-name="Path 65" transform="translate(26.371 15.863)"/>
                <g id="Group_147" class="cls-13" data-name="Group 147" transform="translate(26.718 40.131)">
                    <path id="Path_66" d="M13.551 12.7A7.7 7.7 0 1 1 12.7 1.848a7.7 7.7 0 0 1 .851 10.852z" class="cls-9" data-name="Path 66" transform="translate(36.428 31.259)"/>
                    <path id="Path_67" d="M13.551 12.7A7.7 7.7 0 1 1 12.7 1.848a7.7 7.7 0 0 1 .851 10.852z" class="cls-9" data-name="Path 67"/>
                </g>
                <g id="Group_148" data-name="Group 148" transform="translate(35.399 30.378)">
                    <path id="Path_68" d="M0 5.07s5.8-8.923 13.275-3.094-.84 13.724-.84 13.724" class="cls-14" data-name="Path 68" transform="translate(35.936 30.731)"/>
                    <path id="Path_69" d="M0 5.07s5.8-8.923 13.275-3.094-.84 13.724-.84 13.724" class="cls-14" data-name="Path 69"/>
                </g>
                <path id="Path_70" d="M9.2 7.632c-1.319 1.817-6.229 1.56-7.286.082-3.652-5.1-2.051-11.093 4.603-5.408h.005v.005C9.524 4.872 9.945 6.591 9.2 7.632z" class="cls-9" data-name="Path 70" transform="translate(55.734 51.858)"/>
                <path id="Path_71" d="M22.62 16.392c-.3 3.895-5.988 5.444-12.237 2.073a21.7 21.7 0 0 1-4.817-3.581 23.191 23.191 0 0 1-3.428-4.141v-.005C-1.377 5.218-.356.426 3.724.02a4.169 4.169 0 0 1 .62-.015c1.765.072 3.238 1.231 4.581 2.7.76.836 1.478 1.775 2.181 2.678 1.354 1.734 2.668 3.345 4.135 3.858 3.463 1.2 7.055 3.484 7.363 6.429a3.374 3.374 0 0 1 .016.722z" class="cls-15" data-name="Path 71" transform="translate(41.201 56.268)"/>
                <g id="Group_150" data-name="Group 150" transform="translate(44.212 56.273)">
                    <g id="Group_149" data-name="Group 149">
                        <path id="Path_72" d="M5.915 2.7C4.156 5.249 2.016 6.424.482 3.981-.627 2.206.4.805 1.334 0 3.1.072 4.571 1.231 5.915 2.7z" class="cls-16" data-name="Path 72"/>
                        <path id="Path_73" d="M12.926 10.287C10.268 13.18 5.8 8.891.755 4.777-.794 3.515.35 1.411 1.428 0 2.782 1.734 4.1 3.345 5.563 3.858c3.463 1.201 7.055 3.484 7.363 6.429z" class="cls-16" data-name="Path 73" transform="translate(6.668 5.382)"/>
                    </g>
                </g>
                <path id="Path_74" d="M8.245 7.875a21.7 21.7 0 0 1-4.817-3.581A23.192 23.192 0 0 1 0 .153V.148S4.151-1 4.469 3.073c0 0 4.797-.118 3.776 4.802z" class="cls-17" data-name="Path 74" transform="translate(43.339 66.858)"/>
                <g id="Group_154" data-name="Group 154" transform="translate(29.142 20.877)">
                    <g id="Group_151" data-name="Group 151">
                        <path id="Path_75" d="M16.974 33.973A16.987 16.987 0 1 1 29.9 28.031a16.963 16.963 0 0 1-12.926 5.942zM17 1.539a15.451 15.451 0 1 0 11.732 25.492A15.447 15.447 0 0 0 17 1.539z" class="cls-18" data-name="Path 75"/>
                    </g>
                    <g id="Group_152" data-name="Group 152" transform="translate(34.745 29.712)">
                        <path id="Path_76" d="M16.968 33.989A17 17 0 0 1 .053 18.317a16.994 16.994 0 1 1 29.857 9.721 16.885 16.885 0 0 1-11.592 5.9q-.678.051-1.35.051zm.052-32.45q-.611 0-1.227.048A15.454 15.454 0 0 0 6.951 28.74a15.455 15.455 0 0 0 21.79-1.7 15.455 15.455 0 0 0-11.72-25.5z" class="cls-18" data-name="Path 76"/>
                    </g>
                    <g id="Group_153" data-name="Group 153" transform="translate(30.731 24.815)">
                        <path id="Path_77" d="M9.64 9.847C7.238 1.54.328 1.536.027 1.54L0 0c.077 0 8.378-.055 11.118 9.419z" class="cls-18" data-name="Path 77"/>
                    </g>
                </g>
                <g id="Group_155" class="cls-13" data-name="Group 155" transform="translate(68.096 69.951)">
                    <path id="Path_78" d="M1.273 1.193a.723.723 0 1 1-.08-1.019.723.723 0 0 1 .08 1.019z" class="cls-19" data-name="Path 78"/>
                    <path id="Path_79" d="M1.273 1.193a.723.723 0 1 1-.08-1.019.724.724 0 0 1 .08 1.019z" class="cls-19" data-name="Path 79" transform="translate(1.022 4.687)"/>
                    <path id="Path_80" d="M1.273 1.193a.723.723 0 1 1-.08-1.02.723.723 0 0 1 .08 1.02z" class="cls-19" data-name="Path 80" transform="translate(5.277 4.843)"/>
                    <path id="Path_81" d="M1.273 1.193a.723.723 0 1 1-.08-1.019.723.723 0 0 1 .08 1.019z" class="cls-19" data-name="Path 81" transform="translate(7.339 9.138)"/>
                    <path id="Path_82" d="M1.273 1.193a.723.723 0 1 1-.08-1.019.724.724 0 0 1 .08 1.019z" class="cls-19" data-name="Path 82" transform="translate(12.44 9.147)"/>
                </g>
                <g id="Group_156" class="cls-13" data-name="Group 156" transform="translate(31.232 37.655)">
                    <path id="Path_83" d="M1.273 1.194a.723.723 0 1 1-.08-1.02.724.724 0 0 1 .08 1.02z" class="cls-19" data-name="Path 83" transform="translate(5.186 6.487)"/>
                    <path id="Path_84" d="M1.273 1.193a.723.723 0 1 1-.08-1.02.723.723 0 0 1 .08 1.02z" class="cls-19" data-name="Path 84" transform="translate(5.747 10.45)"/>
                    <path id="Path_85" d="M1.273 1.193a.723.723 0 1 1-.08-1.019.723.723 0 0 1 .08 1.019z" class="cls-19" data-name="Path 85" transform="translate(10.651 10.831)"/>
                    <path id="Path_86" d="M1.273 1.193a.723.723 0 1 1-.08-1.019.723.723 0 0 1 .08 1.019z" class="cls-19" data-name="Path 86" transform="translate(.842)"/>
                    <path id="Path_87" d="M1.273 1.193a.723.723 0 1 1-.08-1.02.724.724 0 0 1 .08 1.02z" class="cls-19" data-name="Path 87" transform="translate(0 4.584)"/>
                </g>
                <path id="Path_88" d="M9.2 7.632c-1.319 1.817-6.229 1.56-7.286.082-3.652-5.1-2.051-11.093 4.603-5.408-.251-.118-4.228-1.97-3.5 2.15.504 2.889 2.474 3.376 6.183 3.176z" class="cls-20" data-name="Path 88" transform="translate(55.734 51.858)"/>
            </g>
        </g>
    </g>
    <path id="Path_218" d="M32.565 11.4c-.036 4.294-2.489 9.337-5.306 12.96-2.406 3.094-5.074 5.146-6.726 4.8a4.95 4.95 0 0 1-2.273-1.585C15.1 24.308 10.707 17.233 0 17.3c0 0 6.814-8.887.924-16.08 0 0 2.288-1.026 8.717-1.2.826-.02 1.729-.031 2.7-.02 2.083.02 4.509.128 7.306.359 2.247.185 4.1.385 5.644.631 8.192 1.297 7.32 3.71 7.274 10.41z" class="cls-3" data-name="Path 218" transform="rotate(-39 87.95 -127.82)"/>
    <path id="Path_219" d="M14.3 10.411c-.062 7.963-8.451 18.506-12.032 17.762A4.95 4.95 0 0 1 0 26.588 31.29 31.29 0 0 0 8.8 13.32C11.651 4.212 7.244.19 7.034 0c8.189 1.293 7.317 3.709 7.266 10.411z" class="cls-4" data-name="Path 219" transform="rotate(-39 80.282 -154.082)"/>
    <path id="Path_220" d="M27.259 24.34c-2.406 3.094-5.074 5.146-6.726 4.8a4.95 4.95 0 0 1-2.273-1.585C15.1 24.284 10.707 17.208 0 17.276c0 0 6.814-8.887.924-16.08C.924 1.2 3.212.17 9.641 0c-1.016.652-1.93 2.329-1.93 6.275 0 8.876 9.769 12.011 13.083 16.69 1.668 2.355 4.285 2.155 6.465 1.375z" class="cls-5" data-name="Path 220" transform="rotate(-39 88.043 -127.815)"/>
</svg>
