<svg xmlns="http://www.w3.org/2000/svg" id="_003-facebook" width="35" height="35" data-name="003-facebook" viewBox="0 0 35 35">
    <defs>
        <style>
            .cls-1{fill:#4e598f}.cls-2{fill:#364270}.cls-3{fill:#fff}
        </style>
    </defs>
    <ellipse id="Ellipse_27" cx="17.5" cy="17.5" class="cls-1" data-name="Ellipse 27" rx="17.5" ry="17.5"/>
    <path id="Path_239" d="M147.469 128.091l-8.243-8.245c-.137.041-.477-.117-.627-.087-3.535.589-6.953 0-10.37.943-1.65.471-1.768 2.475-2.357 3.771-.825 2.357-.707 4.949-1.768 7.189-.707 1.532-2.357 2.475-2.946 4.242-.2.737-.185 1.667-.407 2.371l8.27 8.266c.323.018.648.028.975.028a17.5 17.5 0 0 0 17.5-17.5 14.44 14.44 0 0 0-.027-.978z" class="cls-2" data-name="Path 239" transform="translate(-112.497 -111.569)"/>
    <g id="Group_232" data-name="Group 232" transform="translate(7.483 7.483)">
        <path id="Path_240" d="M126.8 109.466h-14.633a2.7 2.7 0 0 0-2.7 2.7V126.8a2.7 2.7 0 0 0 2.7 2.7h7.218l.013-7.159h-1.86a.439.439 0 0 1-.439-.437l-.009-2.308a.439.439 0 0 1 .439-.441h1.857v-2.23a3.643 3.643 0 0 1 3.889-4h1.894a.439.439 0 0 1 .439.439v1.946a.439.439 0 0 1-.439.439h-1.163c-1.255 0-1.5.6-1.5 1.472v1.93h2.758a.439.439 0 0 1 .436.49l-.273 2.308a.439.439 0 0 1-.436.387h-2.471l-.013 7.159h4.293a2.7 2.7 0 0 0 2.7-2.7v-14.629a2.7 2.7 0 0 0-2.7-2.7z" class="cls-3" data-name="Path 240" transform="translate(-109.468 -109.466)"/>
        <path id="Path_241" d="M254.3 304.967l.013-7.159h-.031v7.159z" class="cls-3" data-name="Path 241" transform="translate(-244.378 -284.933)"/>
    </g>
</svg>
