<svg xmlns="http://www.w3.org/2000/svg" id="_001-facebook" width="38.091" height="38.091" data-name="001-facebook" viewBox="0 0 38.091 38.091">
    <defs>
        <style>
            .cls-1{fill:#fff}
        </style>
    </defs>
    <g id="Group_125" data-name="Group 125" transform="translate(18.301 27.923)">
        <g id="Group_124" data-name="Group 124">
            <path id="Path_31" d="M246.744 375.333a.744.744 0 0 0-.744.744v.012a.744.744 0 0 0 1.488 0v-.012a.744.744 0 0 0-.744-.744z" class="cls-1" data-name="Path 31" transform="translate(-246 -375.333)"/>
        </g>
    </g>
    <g id="Group_127" data-name="Group 127">
        <g id="Group_126" data-name="Group 126">
            <path id="Path_32" d="M30.8 0H7.291A7.3 7.3 0 0 0 0 7.291V30.8a7.3 7.3 0 0 0 7.291 7.291h11.754a.744.744 0 0 0 .744-.744v-5.766a.744.744 0 0 0-1.488 0V36.6H7.291a5.81 5.81 0 0 1-5.8-5.8V7.291a5.81 5.81 0 0 1 5.8-5.8H30.8a5.81 5.81 0 0 1 5.8 5.8V30.8a5.81 5.81 0 0 1-5.8 5.8h-4.761V23.472h4.314a.744.744 0 0 0 .74-.669l.535-5.316a.744.744 0 0 0-.74-.818h-4.849v-2.792c0-.505.161-.693.594-.693h4.221a.744.744 0 0 0 .744-.744V7.257a.744.744 0 0 0-.744-.744H25.31a6.562 6.562 0 0 0-5.651 2.537 7.83 7.83 0 0 0-1.359 4.526V16.7h-3.644a.744.744 0 0 0-.744.744v5.283a.744.744 0 0 0 .744.744H18.3v2.12a.744.744 0 0 0 1.488 0v-2.863a.744.744 0 0 0-.744-.744H15.4v-3.795h3.645a.744.744 0 0 0 .744-.744v-3.869C19.789 11.9 20.327 8 25.31 8h4.8v3.7h-3.478a2 2 0 0 0-2.082 2.181v3.535a.744.744 0 0 0 .744.744h4.77l-.385 3.828h-4.384a.744.744 0 0 0-.744.744v14.615a.744.744 0 0 0 .744.744H30.8a7.3 7.3 0 0 0 7.291-7.291V7.291A7.3 7.3 0 0 0 30.8 0z" class="cls-1" data-name="Path 32"/>
        </g>
    </g>
    <g id="Group_129" data-name="Group 129" transform="translate(3.571 7.626)">
        <g id="Group_128" data-name="Group 128">
            <path id="Path_33" d="M48.744 102.5a.744.744 0 0 0-.744.744v6.212a.744.744 0 1 0 1.488 0v-6.212a.744.744 0 0 0-.744-.744z" class="cls-1" data-name="Path 33" transform="translate(-48 -102.5)"/>
        </g>
    </g>
    <g id="Group_131" data-name="Group 131" transform="translate(3.571 17.065)">
        <g id="Group_130" data-name="Group 130">
            <path id="Path_34" d="M48.744 229.382a.744.744 0 0 0-.744.744v.009a.744.744 0 0 0 1.488 0v-.009a.744.744 0 0 0-.744-.744z" class="cls-1" data-name="Path 34" transform="translate(-48 -229.382)"/>
        </g>
    </g>
</svg>
