<svg xmlns="http://www.w3.org/2000/svg" id="_002-instagram" width="38.091" height="38.091" data-name="002-instagram" viewBox="0 0 38.091 38.091">
    <defs>
        <style>
            .cls-1{fill:#fff}
        </style>
    </defs>
    <g id="Group_133" data-name="Group 133">
        <g id="Group_132" data-name="Group 132">
            <path id="Path_35" d="M26.931 0H11.159A11.172 11.172 0 0 0 0 11.159v15.772a11.172 11.172 0 0 0 11.159 11.16h15.772a11.172 11.172 0 0 0 11.16-11.16V11.159A11.172 11.172 0 0 0 26.931 0zM36.6 26.931a9.682 9.682 0 0 1-9.669 9.669H11.159a9.682 9.682 0 0 1-9.672-9.672V11.159a9.682 9.682 0 0 1 9.672-9.672h15.772a9.682 9.682 0 0 1 9.669 9.672z" class="cls-1" data-name="Path 35"/>
        </g>
    </g>
    <g id="Group_135" data-name="Group 135" transform="translate(3.273 3.273)">
        <g id="Group_134" data-name="Group 134">
            <path id="Path_36" d="M67.658 44H51.886A7.9 7.9 0 0 0 44 51.886v15.772a7.9 7.9 0 0 0 7.886 7.886h4.538a.744.744 0 0 0 0-1.488h-4.538a6.405 6.405 0 0 1-6.4-6.4v-15.77a6.405 6.405 0 0 1 6.4-6.4h15.772a6.405 6.405 0 0 1 6.4 6.4v15.772a6.405 6.405 0 0 1-6.4 6.4h-4.489a.744.744 0 1 0 0 1.488h4.489a7.9 7.9 0 0 0 7.886-7.886V51.886A7.9 7.9 0 0 0 67.658 44z" class="cls-1" data-name="Path 36" transform="translate(-44 -44)"/>
        </g>
    </g>
    <g id="Group_137" data-name="Group 137" transform="translate(18.301 33.33)">
        <g id="Group_136" data-name="Group 136">
            <path id="Path_37" d="M247.27 448.218a.744.744 0 1 0 .218.526.75.75 0 0 0-.218-.526z" class="cls-1" data-name="Path 37" transform="translate(-246 -448)"/>
        </g>
    </g>
    <g id="Group_139" data-name="Group 139" transform="translate(11.763 11.349)">
        <g id="Group_138" data-name="Group 138">
            <path id="Path_38" d="M159.433 152.783a.744.744 0 0 0-1.052-.034l-.033.031a.744.744 0 1 0 1.021 1.082l.029-.027a.744.744 0 0 0 .035-1.052z" class="cls-1" data-name="Path 38" transform="translate(-158.115 -152.547)"/>
        </g>
    </g>
    <g id="Group_141" data-name="Group 141" transform="translate(8.779 8.779)">
        <g id="Group_140" data-name="Group 140">
            <path id="Path_39" d="M128.267 118a10.3 10.3 0 0 0-4.7 1.138.744.744 0 0 0 .683 1.322 8.681 8.681 0 0 1 4.021-.973 8.774 8.774 0 1 1-7.64 4.451.744.744 0 0 0-1.294-.735 10.268 10.268 0 1 0 8.933-5.2z" class="cls-1" data-name="Path 39" transform="translate(-118 -118)"/>
        </g>
    </g>
    <g id="Group_143" data-name="Group 143" transform="translate(12.35 12.35)">
        <g id="Group_142" data-name="Group 142">
            <path id="Path_40" d="M172.7 166a6.7 6.7 0 1 0 6.7 6.7 6.7 6.7 0 0 0-6.7-6.7zm0 11.9a5.208 5.208 0 1 1 5.2-5.2 5.214 5.214 0 0 1-5.2 5.2z" class="cls-1" data-name="Path 40" transform="translate(-166 -166)"/>
        </g>
    </g>
    <g id="Group_145" data-name="Group 145" transform="translate(25.983 6.454)">
        <g id="Group_144" data-name="Group 144">
            <path id="Path_41" d="M352.077 86.75a2.827 2.827 0 1 0 2.827 2.827 2.83 2.83 0 0 0-2.827-2.827zm0 4.166a1.339 1.339 0 1 1 1.339-1.339 1.341 1.341 0 0 1-1.339 1.339z" class="cls-1" data-name="Path 41" transform="translate(-349.25 -86.75)"/>
        </g>
    </g>
</svg>
