<svg xmlns="http://www.w3.org/2000/svg" width="696.834" height="480.379" viewBox="0 0 696.834 480.379">
    <defs>
        <style>
            .cls-1{fill:#eac8a7}.cls-2{fill:#0b97aa}.cls-3{fill:#4d4a4a}.cls-4{fill:#5d7177}.cls-5{fill:#fff}.cls-6{fill:#06aaca}.cls-7{fill:#53453e}.cls-8{fill:#f2cb58}.cls-9{fill:#eebe50}.cls-10{fill:#f3d079}.cls-11{fill:#6a533f}.cls-12{fill:#d35d64}.cls-13{fill:#2f2d2d}.cls-14{fill:#e198a3}.cls-15{fill:#fee0d4}.cls-16{fill:#edceaf}.cls-17{fill:#445256}.cls-18{fill:#665549}.cls-19{fill:#736052}.cls-20{fill:#ebc9a8}.cls-21{fill:#514740}.cls-22{fill:#595954}.cls-23{fill:#333131}.cls-24{fill:#e5ccb4}.cls-25{fill:#5f4735}.cls-26{fill:#d04b7b}.cls-27{fill:#1a1a1a}
        </style>
    </defs>
    <g id="Group_405" data-name="Group 405" transform="translate(-65.482 -24.832)">
        <g id="Group_266" data-name="Group 266" transform="translate(299.482 24.832)">
            <g id="Group_235" data-name="Group 235" transform="translate(0 118.654)">
                <g id="Group_233" data-name="Group 233">
                    <path id="Path_245" d="M454.97 212.662a2.318 2.318 0 0 1 .284.588c.5 1.917-.382 3.217-.423 5.192-.018.88 1.859 2.149.294 3.117-.577.357-2.117 1.034-3.355 1.783-1.805 1.093-3.433 3.57-4.362 5.776a65.287 65.287 0 0 0-3.687 12.35c-.756 3.75-2.548 9.514-1.873 13.3.611 3.431 5.177 7.733 7.227 10.653q3.871 5.516 7.579 11.145c1.74 2.642 3.483 5.37 4.2 8.452a6.615 6.615 0 0 1-.752 5.507 8.566 8.566 0 0 1-2.986 2.151c-1.94 1.008-4.034 2.046-6.2 1.781-2.673-.327-4.684-2.516-6.379-4.608a89.061 89.061 0 0 1-10.153-15.1c-1.971-3.82-5.681-10.571-4.81-14.925a279.208 279.208 0 0 1 7.9-29.317c.842-2.662 2.977-4.544 3.733-7.014.483-1.576-.272-3.159-.146-4.747a15.364 15.364 0 0 1 1.384-5.014c1.371-2.786 4.528-3.348 7.238-4.112a3.337 3.337 0 0 1 1.773-.182 4.811 4.811 0 0 1 2.414 1.771 9.323 9.323 0 0 1 1.1 1.453z" class="cls-1" data-name="Path 245" transform="translate(-429.436 -209.382)"/>
                </g>
                <g id="Group_234" data-name="Group 234" transform="translate(11.118 62.526)">
                    <path id="Path_246" d="M451.653 317.206c2.875-2.6 7.65-9.025 11.256-10.225 4.83-1.608 6.332 2.654 9.631 6.717 2.593 3.193 5.268 6.458 8.83 8.516 5.422 3.132 12.125 3.042 17.92 5.414a4.941 4.941 0 0 1 2.391 1.679 4.581 4.581 0 0 1 .569 2.567c-.041 3.773-1.688 7.319-3.3 10.73l-12.85 27.14a2.934 2.934 0 0 1-.965 1.319c-1.259.786-2.731-.6-3.566-1.825-5.514-8.1-10.208-15.512-17.589-21.713-7.579-6.368-13.239-15.48-17.044-24.537a1.874 1.874 0 0 1-.2-.929 1.9 1.9 0 0 1 .731-1.064z" class="cls-2" data-name="Path 246" transform="translate(-446.729 -306.633)"/>
                </g>
            </g>
            <g id="Group_238" data-name="Group 238" transform="translate(92.94 115.187)">
                <g id="Group_236" data-name="Group 236" transform="translate(34.966)">
                    <path id="Path_247" d="M634.518 207.269a2.3 2.3 0 0 0-.285.588c-.5 1.917.383 3.217.423 5.192.018.88-1.858 2.149-.294 3.117.577.357 2.117 1.034 3.354 1.784 1.806 1.093 3.433 3.57 4.363 5.775a65.335 65.335 0 0 1 3.686 12.35c.756 3.75 2.548 9.514 1.874 13.3-.611 3.431-5.178 7.733-7.227 10.653q-3.871 5.516-7.578 11.145c-1.74 2.642-3.483 5.37-4.2 8.452a6.612 6.612 0 0 0 .751 5.507 8.572 8.572 0 0 0 2.986 2.151c1.94 1.008 4.034 2.046 6.205 1.781 2.672-.327 4.683-2.516 6.379-4.608a89.1 89.1 0 0 0 10.153-15.1c1.971-3.82 5.68-10.571 4.809-14.925a279.059 279.059 0 0 0-7.9-29.317c-.842-2.662-2.977-4.544-3.733-7.014-.482-1.576.273-3.159.146-4.747a15.349 15.349 0 0 0-1.384-5.014c-1.371-2.786-4.528-3.348-7.238-4.112a3.336 3.336 0 0 0-1.773-.182 4.817 4.817 0 0 0-2.414 1.771 9.284 9.284 0 0 0-1.103 1.453z" class="cls-1" data-name="Path 247" transform="translate(-628.377 -203.989)"/>
                </g>
                <g id="Group_237" data-name="Group 237" transform="translate(0 62.526)">
                    <path id="Path_248" d="M624.59 311.813c-2.874-2.6-7.65-9.025-11.257-10.225-4.83-1.608-6.332 2.654-9.631 6.717-2.593 3.193-5.268 6.458-8.83 8.516-5.422 3.132-12.125 3.042-17.92 5.414a4.944 4.944 0 0 0-2.391 1.679 4.585 4.585 0 0 0-.569 2.567c.041 3.773 1.688 7.319 3.3 10.73l12.846 27.14a2.93 2.93 0 0 0 .965 1.319c1.259.786 2.73-.6 3.566-1.825 5.514-8.1 10.209-15.512 17.589-21.713 7.579-6.368 13.239-15.48 17.044-24.537a1.867 1.867 0 0 0 .2-.929 1.9 1.9 0 0 0-.73-1.064z" class="cls-2" data-name="Path 248" transform="translate(-573.992 -301.24)"/>
                </g>
            </g>
            <g id="Group_247" data-name="Group 247" transform="translate(37.526 148.924)">
                <g id="Group_243" data-name="Group 243" transform="translate(0 168.454)">
                    <g id="Group_240" data-name="Group 240" transform="translate(59.372 74.409)">
                        <g id="Group_239" data-name="Group 239" transform="translate(.209)">
                            <path id="Path_249" d="M580.473 634.2l.458 27.906c-.187 7.743.51 15.461.981 23.178.438 7.168-1.007 14.557 2.394 21.2 1.067 2.083 3.336 3.534 5.063 1.128 1.33-1.854.718-5.063 1.047-7.216 2.47-16.177 7.068-31.954 9.362-48.162 2.403-16.973-4.166-16.525-19.305-18.034z" class="cls-1" data-name="Path 249" transform="translate(-580.473 -634.204)"/>
                        </g>
                        <path id="Path_250" d="M581.942 738.677l-1.794 4.655 8.829 7.771 8.088.333 2.615-4.267-10.88-9.458z" class="cls-3" data-name="Path 250" transform="translate(-580.148 -671.163)"/>
                    </g>
                    <g id="Group_242" data-name="Group 242" transform="translate(16.144 73.029)">
                        <g id="Group_241" data-name="Group 241" transform="translate(1.085)">
                            <path id="Path_251" d="M537.182 633.71l-5.09 27.442c-1.764 12.276-5.775 24.232-7.539 36.508-.405 2.823-.2 5.911-1.381 8.574-1.154 2.6-3.413 2.708-5.406.941-2.671-2.368-1.439-6.6-1.39-9.832.327-21.544-1.368-42.784-1.775-64.363a.958.958 0 0 1 .226-.786.925.925 0 0 1 .661-.128c2.094.134 21.584 2.234 21.694 1.644z" class="cls-1" data-name="Path 251" transform="translate(-514.599 -632.058)"/>
                        </g>
                        <path id="Path_252" d="M515.71 741l-2.8 4.13 6.847 9.563 7.8 2.15 3.511-3.567-8.456-11.676z" class="cls-3" data-name="Path 252" transform="translate(-512.912 -670.956)"/>
                    </g>
                    <path id="Path_253" d="M576.145 610.636l-3.807-39.9-1.838-25.92-6.173-21.172L531 518.471l-41.212 7.064-1.981 8.007 7.931 74.115 39.75 2.979-.539-46.129 6.132 28.592-.26 17.537z" class="cls-4" data-name="Path 253" transform="translate(-487.803 -518.471)"/>
                </g>
                <path id="Path_254" d="M504.373 380.3q-.084 2.02-.117 4.037c-.482 27.367 1.026 55.082 1.2 82.676a306.144 306.144 0 0 1 42.722-3.647c3.31-.05 18.362 2.274 20.458.3 2.844-2.682-.284-2.177-.076-5.672.269-4.522-1.9-8.224-1.083-13.583.964-6.3 2.883-12.525 3.988-18.821a274.756 274.756 0 0 0 3.983-38.214c.384-11.362-.028-23.146-4.914-33.41-12.049-25.314-50.9-24.859-61.555 1.572-3.158 7.829-4.253 16.305-4.606 24.762z" class="cls-5" data-name="Path 254" transform="translate(-493.644 -284.628)"/>
                <path id="Path_255" d="M566.811 343.632L556.26 362.86l1.654 58.271.762 26.854c.088 3.109.165 6.217.264 9.325.045 1.4-.34 3.744.455 4.882 1.728 2.471 8.042 1.7 10.8 1.918 4.3.338 8.654.689 12.7 2.172 2.693.988 5.246 2.475 8.087 2.873a2.4 2.4 0 0 0 1.854-.3 2.693 2.693 0 0 0 .709-1.975c.988-13.335 1.008-27.082 1.747-40.56.606-11.03 2.149-22.685 1.192-33.728a5.639 5.639 0 0 0-.068-.551c-3.394-18.423 3.634-32.482-9.744-48.936-7.2-8.858-10.906-7.8-20.508-10.149-2.421-.593-7.634-2.48-6.325 2.311.747 2.733 5.121 6.163 6.972 8.365z" class="cls-6" data-name="Path 255" transform="translate(-512.246 -283.465)"/>
                <path id="Path_256" d="M519.875 346.387l10.551 19.228c-.221 0-1.338 47.133-1.429 50.314l-1.03 36.3c-.1 3.363.356 7.3-.3 10.607-.918 4.615-5.776 3.707-9.917 4.08-9.055.816-18.589 2.362-27.67 1.9-2.619-.132.828-54.795.824-59.9-.018-18.347-3.8-38.7 5.517-55.339 2.711-4.841 7.491-12.6 12.768-14.991 4.917-2.227 11.956-2.606 17.294-3.854l.278 3.459z" class="cls-6" data-name="Path 256" transform="translate(-488.265 -284.412)"/>
                <g id="Group_246" data-name="Group 246" transform="translate(23.353)">
                    <g id="Group_245" data-name="Group 245">
                        <path id="Path_257" d="M569.451 276.192a21.277 21.277 0 0 1 2.609 9.612 3.049 3.049 0 0 0 .82 2.444c.771.563.093 1.8.68 1.045s2.576-3.367 2.666-4.317a35.135 35.135 0 0 0-.009-6.695 9.612 9.612 0 0 0-1.85-5.432 10.906 10.906 0 0 0-2.739-2.085 13.994 13.994 0 0 0-4.548-2.043c-2.832-.528-4.569.489-2.07 2.464a17.271 17.271 0 0 1 4.441 5.007z" class="cls-7" data-name="Path 257" transform="translate(-538.294 -260.791)"/>
                        <g id="Group_244" data-name="Group 244" transform="translate(3.285 8.411)">
                            <path id="Path_258" d="M539.411 314.517c.019 1.37-.262 2.792.947 3.855a4.148 4.148 0 0 0 2.131.836 13.213 13.213 0 0 0 5.934-.421 5.328 5.328 0 0 0 2.164-1.141 2.707 2.707 0 0 0 .77-2.194c.039-1.033.248-2.082.383-3.13.3-2.291.429-4.6.5-6.908 3.393-.583 7.385-1.679 8.545-5.234a11.656 11.656 0 0 0 .386-3.529l.109-14.775a14.274 14.274 0 0 0-.567-5.039c-1.024-2.774-3.624-4.427-6.175-5.467-6.508-2.655-14.094-2.549-20.1 1.227a10.972 10.972 0 0 0-4.029 4.052c-1.42 2.705-1.241 6.046-1.02 9.168q.3 4.323.611 8.644c.234 3.314.732 7.129 3.305 8.88 1.366.929 3.132 1.1 4.31 2.3 2.056 2.1 1.076 5.235 1.684 7.78a5 5 0 0 1 .112 1.096z" class="cls-1" data-name="Path 258" transform="translate(-529.235 -269.546)"/>
                        </g>
                        <path id="Path_259" d="M562.361 307.289c-.055-.914-.454-3.59-1.827-1.908a2.749 2.749 0 0 0-.47 1.647 6.2 6.2 0 0 1-.18 1.74 3.066 3.066 0 0 1-3.072 1.819 2.987 2.987 0 0 1-1.441-.34 4.487 4.487 0 0 1-1.094-1.006l-2.4-2.756c-1.377-1.58-4.106-.9-5.961-.655a11.884 11.884 0 0 0-6.022 2.33c-.176.142-.348.291-.521.44a6.388 6.388 0 0 1-1.333.961c-1.651.8-3.695-.035-4.852-1.539-.53-.689-1.025-1.576-1.848-1.691a1.692 1.692 0 0 0-1.6.975 4.838 4.838 0 0 0-.464 2.021 14.848 14.848 0 0 0 1.29 7.423c2.391 4.893 7.014 5.493 11.66 5.383l5.51-.13c3.357-.079 6.906-.219 9.734-2.17a12.06 12.06 0 0 0 4.586-7.715 19.037 19.037 0 0 0 .305-4.829zm-12.283 6.935a6.43 6.43 0 0 1-5.688.66c-.837-.252-.482-1.658.357-1.405a5.167 5.167 0 0 0 4.647-.511c.74-.499 1.42.76.683 1.256z" class="cls-7" data-name="Path 259" transform="translate(-525.949 -273.736)"/>
                        <path id="Path_260" d="M561.239 263.33a26.228 26.228 0 0 0 .716-3.638 7.2 7.2 0 0 1-3.561.305l-.008-2.124c-.005-.59-7.973-1-8.62-1.055-6.062-.5-11.6-.97-17.085 2.283a16.5 16.5 0 0 0-8.4 12.33 25.24 25.24 0 0 0 3.987 16.181c-.017-1.374-.808-4.614-.484-5.92a11.658 11.658 0 0 1 1.274-3.735 15.4 15.4 0 0 1 5.4-5.679 29.924 29.924 0 0 1 11.808-3.978c3.78-.527 8.386-1.013 12.12-.012 1.794.482 2.093.932 3.179-.88a30.8 30.8 0 0 0 1.563-4.052z" class="cls-7" data-name="Path 260" transform="translate(-524.125 -256.463)"/>
                    </g>
                </g>
            </g>
            <g id="Group_265" data-name="Group 265" transform="translate(.276)">
                <g id="Group_262" data-name="Group 262">
                    <g id="Group_258" data-name="Group 258">
                        <g id="Group_254" data-name="Group 254">
                            <g id="Group_249" data-name="Group 249">
                                <g id="Group_248" data-name="Group 248">
                                    <circle id="Ellipse_29" cx="77.061" cy="77.061" r="77.061" class="cls-8" data-name="Ellipse 29"/>
                                </g>
                            </g>
                            <g id="Group_251" data-name="Group 251" transform="translate(18.521 6.317)">
                                <g id="Group_250" data-name="Group 250">
                                    <path id="Path_261" d="M547.983 34.657a77.073 77.073 0 0 1-89.31 120.8 77.068 77.068 0 1 0 89.31-120.8z" class="cls-9" data-name="Path 261" transform="translate(-458.673 -34.657)"/>
                                </g>
                            </g>
                            <g id="Group_253" data-name="Group 253" transform="translate(5.167 5.731)">
                                <g id="Group_252" data-name="Group 252">
                                    <path id="Path_262" d="M444.989 122.4a71.546 71.546 0 0 1 120.942-61.048 71.552 71.552 0 1 0-106.563 95.033 71.214 71.214 0 0 1-14.379-33.985z" class="cls-10" data-name="Path 262" transform="translate(-437.903 -33.745)"/>
                                </g>
                            </g>
                        </g>
                        <g id="Group_257" data-name="Group 257" transform="translate(46.822 88.118)">
                            <g id="Group_255" data-name="Group 255">
                                <path id="Path_263" d="M502.691 171.007a32.965 32.965 0 0 0 64.869-9.119z" class="cls-11" data-name="Path 263" transform="translate(-502.691 -161.888)"/>
                            </g>
                            <g id="Group_256" data-name="Group 256" transform="translate(12.846 19.302)">
                                <path id="Path_264" d="M522.672 200.35a32.935 32.935 0 0 0 44.143-5.487l-.4-.659c-23.273-7.559-43.467 5.96-43.743 6.146z" class="cls-12" data-name="Path 264" transform="translate(-522.672 -191.909)"/>
                            </g>
                        </g>
                    </g>
                    <g id="Group_261" data-name="Group 261" transform="translate(28.619 50.945)">
                        <g id="Group_259" data-name="Group 259" transform="translate(65.562)">
                            <path id="Path_265" d="M576.421 114.942a14.278 14.278 0 0 1 26.11-3.935 2.3 2.3 0 0 1-3.321 3.031c-4.81-3.51-11.968-5.864-18.744 2.862a2.3 2.3 0 0 1-4.045-1.958z" class="cls-13" data-name="Path 265" transform="translate(-576.352 -104.07)"/>
                        </g>
                        <g id="Group_260" data-name="Group 260" transform="translate(0 9.216)">
                            <path id="Path_266" d="M474.447 129.276a14.277 14.277 0 0 1 26.109-3.935 2.3 2.3 0 0 1-3.321 3.031c-4.81-3.51-11.967-5.865-18.743 2.862a2.3 2.3 0 0 1-4.045-1.958z" class="cls-13" data-name="Path 266" transform="translate(-474.378 -118.405)"/>
                        </g>
                    </g>
                </g>
                <g id="Group_263" data-name="Group 263" transform="translate(16.521 74.429)">
                    <circle id="Ellipse_30" cx="13.454" cy="13.454" r="13.454" class="cls-14" data-name="Ellipse 30" transform="rotate(-74.727 16.998 12.979)"/>
                </g>
                <g id="Group_264" data-name="Group 264" transform="translate(112.53 64.433)">
                    <circle id="Ellipse_31" cx="13.454" cy="13.454" r="13.454" class="cls-14" data-name="Ellipse 31"/>
                </g>
            </g>
        </g>
        <g id="Group_305" data-name="Group 305" transform="translate(574.55 155.57)">
            <g id="Group_269" data-name="Group 269" transform="translate(0 44.818)">
                <g id="Group_267" data-name="Group 267">
                    <path id="Path_267" d="M864.483 297.894a2.422 2.422 0 0 1 .683.1c1.974.69 2.59 2.233 4.295 3.435.76.536 2.978-.358 2.9 1.582-.028.716-.345 2.463-.419 3.989-.109 2.226 1.1 5.113 2.48 7.228 5.429 8.311 12.969 14.913 20.633 21.21a3.567 3.567 0 0 0 1.452.844 3.737 3.737 0 0 0 2.765-1.015 75.913 75.913 0 0 1 12.162-7.066c3.8-1.76 7.862-3.224 12.052-3.172s8.55 1.864 10.75 5.429a9.947 9.947 0 0 1 .646 9.029c-3.1 7.136-14.467 7-21.03 8.179a135.046 135.046 0 0 1-18.8 2.029 5.807 5.807 0 0 1-2.309-.232 5.9 5.9 0 0 1-1.969-1.493 294.747 294.747 0 0 1-21-24.223c-1.834-2.309-2.221-5.288-3.936-7.408-1.094-1.353-2.926-1.627-4.241-2.674a16.208 16.208 0 0 1-3.572-4.171c-1.629-2.844-.258-5.94.673-8.763a3.516 3.516 0 0 1 .887-1.659 5.085 5.085 0 0 1 2.975-1.068 9.938 9.938 0 0 1 1.923-.11z" class="cls-15" data-name="Path 267" transform="translate(-857.269 -297.885)"/>
                </g>
                <g id="Group_268" data-name="Group 268" transform="translate(14.968 7.737)">
                    <path id="Path_268" d="M925.244 356.874a89.912 89.912 0 0 1-20.135.9 11.294 11.294 0 0 1-4.65-1.117 12.414 12.414 0 0 1-2.977-2.635l-15.654-17.2c-.745-.818-1.545-1.872-1.191-2.92a3.156 3.156 0 0 1 1.347-1.432l7.554-5.2a2.615 2.615 0 0 1 1.512-.619 2.3 2.3 0 0 1 1.348.678c2.459 2.142 3.75 5.451 6.4 7.343a10.921 10.921 0 0 0 8.587 1.358c12.224-2.631 23.217-12.562 33.832-18.762 5.62-3.282 11.468-6.64 17.945-7.275 13.83-1.354 22.409 14.8 12.279 25a75.726 75.726 0 0 1-31.292 18.506 103.37 103.37 0 0 1-14.905 3.375z" class="cls-2" data-name="Path 268" transform="translate(-880.55 -309.92)"/>
                </g>
            </g>
            <g id="Group_301" data-name="Group 301" transform="translate(49.372)">
                <g id="Group_285" data-name="Group 285" transform="translate(0 133.873)">
                    <g id="Group_275" data-name="Group 275" transform="translate(23.632 173.469)">
                        <g id="Group_274" data-name="Group 274">
                            <g id="Group_271" data-name="Group 271" transform="translate(8.449)">
                                <g id="Group_270" data-name="Group 270">
                                    <path id="Path_269" d="M993.465 706.625l2.175 15.643-9.271 1.281-2.411-17.343z" class="cls-16" data-name="Path 269" transform="translate(-983.958 -706.206)"/>
                                </g>
                            </g>
                            <g id="Group_273" data-name="Group 273" transform="translate(0 14.785)">
                                <g id="Group_272" data-name="Group 272">
                                    <path id="Path_270" d="M982.2 729.2l8.409 1.663 2.731 2.291.358 6.193-21.62 4.416a4.9 4.9 0 0 1 1.513-7.689l.972-.476z" class="cls-3" data-name="Path 270" transform="translate(-970.816 -729.202)"/>
                                </g>
                            </g>
                        </g>
                    </g>
                    <g id="Group_284" data-name="Group 284" transform="translate(26.696 3.007)">
                        <g id="Group_283" data-name="Group 283">
                            <g id="Group_281" data-name="Group 281" transform="translate(79.577 101.494)">
                                <g id="Group_280" data-name="Group 280">
                                    <g id="Group_277" data-name="Group 277" transform="translate(0 2.835)">
                                        <g id="Group_276" data-name="Group 276">
                                            <path id="Path_271" d="M1101.816 608.124c3.916-1.3 7.721-3.86 11.663-4.779.2 3.069.5 6.129.751 9.193a60.078 60.078 0 0 1-14.877 4.956c.824-3.105 1.884-6.209 2.463-9.37z" class="cls-16" data-name="Path 271" transform="translate(-1099.353 -603.345)"/>
                                        </g>
                                    </g>
                                    <g id="Group_279" data-name="Group 279" transform="translate(13.552)">
                                        <g id="Group_278" data-name="Group 278">
                                            <path id="Path_272" d="M1122.029 610.791a2.7 2.7 0 0 1-.539-1.311c-.577-2.253-2.086-8.5.042-10.41.346-.311.507 0 .817.142a43.653 43.653 0 0 1 13.061 9.476c1.767 1.787 3.472 4.027 3.591 6.627a5.949 5.949 0 0 1-.85 2.929 22.613 22.613 0 0 1-2.22 3.654c-.307.421-.561.89-1.162.849-1.2-.08-1.782-1.459-2.016-2.592a8.079 8.079 0 0 0-1.081-3.464 4.09 4.09 0 0 0-1.241-.925c-3.031-1.744-6.238-1.914-8.402-4.975z" class="cls-3" data-name="Path 272" transform="translate(-1120.431 -598.935)"/>
                                        </g>
                                    </g>
                                </g>
                            </g>
                            <g id="Group_282" data-name="Group 282">
                                <path id="Path_273" d="M990.2 541.944c7.563 13.438 18.69 19.3 32.082 23.452 15.324 4.756 28.524 2.158 42.176-5.475.235-4.557-.2-9.085.137-13.363-15.181 2.408-22.514 1.875-32.761-11.689-14.811-19.6-.1-48.465-4.162-72.146a23.4 23.4 0 0 0-2.593-7.823c-16.082-27.772-45.032-9.213-48.607 16.217-3.201 22.758 2.446 50.783 13.728 70.827z" class="cls-17" data-name="Path 273" transform="translate(-975.582 -441.074)"/>
                            </g>
                        </g>
                    </g>
                    <path id="Path_274" d="M1003.412 458.888a95.754 95.754 0 0 0-5.431-22.49 169.342 169.342 0 0 0-40.246 8.428c-12.283 4.127-19.8 7.85-18.19 21.527 2.966 25.166-4.193 47.811-5.425 72.51-.716 14.353 5.111 26.386 11.453 38.806a444.518 444.518 0 0 1 19.439 43.726l13.091-1.711c1.893-19.929-2.394-39.85-4.5-59.757-1.465-13.833-1.812-28.136 1.647-41.716 3.8-14.929 12.537-10.264 20.723-19.667 7.955-9.144 9.216-25.051 7.439-39.656z" class="cls-17" data-name="Path 274" transform="translate(-934.06 -436.398)"/>
                </g>
                <g id="Group_286" data-name="Group 286" transform="translate(3.073 56.09)">
                    <path id="Path_275" d="M987.6 318.334a35.148 35.148 0 0 1 4.161 3.633l3.552 3.447c4.1 3.982 6.321 10.057 8.246 15.3 10.128 27.59 15.108 65.862 10.766 95.392-21.61 2.9-46.981-1.391-68.771-3.328-2.118-.188-4.525-.548-5.7-2.318a7.226 7.226 0 0 1-.858-3.721c-.872-18.576 2.113-38.726 4.932-57.212a200.483 200.483 0 0 1 4.845-23.162c2.225-8.055 4.751-16.757 10.55-23.044 6.2-6.727 18.515-10.484 26.9-5.856a15.132 15.132 0 0 1 1.377.869z" class="cls-6" data-name="Path 275" transform="translate(-938.84 -315.417)"/>
                </g>
                <g id="Group_300" data-name="Group 300" transform="translate(10.811)">
                    <g id="Group_288" data-name="Group 288" transform="translate(21.068 10.124)">
                        <g id="Group_287" data-name="Group 287">
                            <path id="Path_276" d="M1001.416 296.822l.82-7.635a13.878 13.878 0 0 0 1.452-.9c8.777-6.2 22.5-37.943-1.954-43.752-22.2-5.273-19.641 24.8-14.775 37.165a18.694 18.694 0 0 0 3.441 5.8c1.047 1.158 1.259.919 1.182 2.322-.074 1.358-1.348 2.95-1.587 4.391a5.8 5.8 0 0 0 .89 4.452 5.98 5.98 0 0 0 2.257 1.711 6.8 6.8 0 0 0 4.418.611 5.515 5.515 0 0 0 3.856-4.165z" class="cls-15" data-name="Path 276" transform="translate(-983.642 -243.924)"/>
                        </g>
                    </g>
                    <g id="Group_299" data-name="Group 299">
                        <g id="Group_291" data-name="Group 291" transform="translate(17.051 23.197)">
                            <g id="Group_290" data-name="Group 290">
                                <g id="Group_289" data-name="Group 289">
                                    <path id="Path_277" d="M979.048 277.824a47.763 47.763 0 0 0 6.1 11.088 81.237 81.237 0 0 1 1.625-22.145 2.134 2.134 0 0 0-.09-1.647 2 2 0 0 0-1.391-.666c-9.317-1.56-8.91 6.494-6.244 13.37z" class="cls-18" data-name="Path 277" transform="translate(-977.395 -264.257)"/>
                                </g>
                            </g>
                        </g>
                        <g id="Group_298" data-name="Group 298">
                            <g id="Group_294" data-name="Group 294" transform="translate(43.464 10.384)">
                                <g id="Group_293" data-name="Group 293">
                                    <g id="Group_292" data-name="Group 292">
                                        <path id="Path_278" d="M1018.477 280.741c1.578 2.012 4.794 1.3 7.022.044a24.871 24.871 0 0 0 11.573-26.946c-2.146-8.523-13.3-14.466-14.989-3.7-.6 3.817 1.949 8.946 1.62 13.165-.471 6.028-2.995 11.896-5.226 17.437z" class="cls-19" data-name="Path 278" transform="translate(-1018.477 -244.328)"/>
                                    </g>
                                </g>
                            </g>
                            <g id="Group_297" data-name="Group 297">
                                <g id="Group_296" data-name="Group 296">
                                    <g id="Group_295" data-name="Group 295">
                                        <path id="Path_279" d="M968.126 232.026c-1.031.465-2.079.953-3.184 1.447-2.288 1.022-3.962 1.409-6.431.156-.706-.359-5.516-4.5-4.451-5.452-7.065 6.34-.61 14.8 2.437 20.867 2.054 4.087 2.714 9.962 7.016 12.494 4.733 2.785 7.7-1.158 11.793-3.055 3.606-1.674 7.544-2.673 11.223-4.184 6.1-2.507 15.16-6.834 12.715-14.986-2.856-9.521-12.729-11.463-21.464-10.314a32.8 32.8 0 0 0-9.654 3.027z" class="cls-19" data-name="Path 279" transform="translate(-950.874 -228.177)"/>
                                    </g>
                                </g>
                            </g>
                        </g>
                    </g>
                </g>
            </g>
            <g id="Group_304" data-name="Group 304" transform="translate(69.261 66.111)">
                <g id="Group_303" data-name="Group 303" transform="translate(0 5.429)">
                    <g id="Group_302" data-name="Group 302">
                        <path id="Path_280" d="M970.129 339.524a2.44 2.44 0 0 1 .687-.072c2.083.186 3.058 1.53 5.005 2.277.869.333 2.8-1.077 3.2.823.149.7.269 2.472.571 3.97.44 2.185 2.318 4.688 4.177 6.4 3.516 3.24 16.575 8 15.567 14.071-2.368 14.267-21.264-8.338-23.374-9.918-1.393-1.043-3.235-.86-4.767-1.553a16.215 16.215 0 0 1-4.485-3.169c-2.277-2.358-1.706-5.7-1.495-8.66a3.512 3.512 0 0 1 .453-1.826 5.086 5.086 0 0 1 2.623-1.764 9.845 9.845 0 0 1 1.838-.579z" class="cls-15" data-name="Path 280" transform="translate(-964.995 -339.448)"/>
                    </g>
                </g>
                <path id="Path_281" d="M1037.52 381.495c-1.834 5.887-13.337 2.044-17.366.28a110.752 110.752 0 0 1-23.771-13.885 2.271 2.271 0 0 1-1.019-1.339 2.3 2.3 0 0 1 .6-1.553l6.171-8.683a4.45 4.45 0 0 1 1.609-1.594c2.615-1.214 6.2 2.217 8.863 2.491.74-6.53-3.174-12.07-5.1-18.006-2.641-8.132 6.652-10.3 11.676-6.127 6.147 5.109 10.287 12.726 12.928 20.143 2.862 8.04 4.205 16.527 5.534 24.957a7.334 7.334 0 0 1-.125 3.316z" class="cls-2" data-name="Path 281" transform="translate(-975.834 -331.004)"/>
            </g>
        </g>
        <g id="Group_306" data-name="Group 306" transform="translate(468.714 188.748)">
            <path id="Path_282" d="M696.638 290.715c-1.166-1.186-2.293-2.414-3.4-3.438l-.56-4.782a.89.89 0 0 1 .57-1.137l2.546-1.38a1.334 1.334 0 0 1 .537-.2c.418-.024.748.335 1.008.664.9 1.135 4.115 4.945 4.2 1.857a1.138 1.138 0 0 1 .895-.975 3.329 3.329 0 0 1 1.408.035c.336.057.731.161.844.482a.971.971 0 0 1 .006.457 12.767 12.767 0 0 0-.236 4.66l.968 5.461c.017.093-2.389 1.317-2.608 1.452-1.268.785-.745 1.131-2.172.25a22.562 22.562 0 0 1-4.006-3.406z" class="cls-20" data-name="Path 282" transform="translate(-692.654 -279.781)"/>
            <path id="Path_283" d="M756.057 325.375l-31.489 3.937-15.916-35.065-8.305 4.929 8.522 51.611 11.012 11.551 21.66-1.785z" class="cls-2" data-name="Path 283" transform="translate(-695.401 -284.947)"/>
        </g>
        <g id="Group_312" data-name="Group 312" transform="translate(478.382 177.881)">
            <g id="Group_308" data-name="Group 308" transform="translate(38.47 153.045)">
                <g id="Group_307" data-name="Group 307">
                    <path id="Path_284" d="M806.995 510.565l-11.552 74.392 4.1 53.741-8.413 2.627-7.53-49.659-16.073-90.746z" class="cls-20" data-name="Path 284" transform="translate(-767.527 -500.92)"/>
                </g>
                <path id="Path_285" d="M803.751 720.2l-.929 5.568 2.11 10.582 6.947-.589 1.308-15.675-1.023-2.513z" class="cls-21" data-name="Path 285" transform="translate(-780.13 -578.279)"/>
            </g>
            <g id="Group_309" data-name="Group 309" transform="translate(9.865 154.498)">
                <path id="Path_286" d="M723.035 509.16l3.714 63.1 15.709 88.207 8.514-.1-3.785-81.784 11.044-75.4z" class="cls-20" data-name="Path 286" transform="translate(-723.035 -503.18)"/>
                <path id="Path_287" d="M747.42 745.466l-10.882 7.141 1.358 5.336 19.924-4.251-1.62-7.707z" class="cls-21" data-name="Path 287" transform="translate(-727.856 -589.692)"/>
            </g>
            <path id="Path_288" d="M720.116 521.668l.355 73.239 10.011 49.382 22.81-3.305-.664-57.071 4.735-62.692-2.346-9.494-32.991 3.352z" class="cls-22" data-name="Path 288" transform="translate(-712.128 -351.734)"/>
            <path id="Path_289" d="M778.654 580.9l7.061 51.943 19.836-2.764L801 580.635l7.36-63.229-4.321-17.122-33.329 5.022z" class="cls-22" data-name="Path 289" transform="translate(-730.194 -347.648)"/>
            <path id="Path_290" d="M795.423 368.669c-2.192-7.347-6.053-19.865-12.529-23.4q-.2-.111-.409-.219a32.744 32.744 0 0 0-4.1-1.8 17.2 17.2 0 0 0-9.967-2.082 28.151 28.151 0 0 0-9.734.935 23.2 23.2 0 0 0-4.088 1.808c-3.882 2.023-6.862 2.895-9.274 6.868-2.095 3.45-3.35 7.478-4.938 11.2-13.281 31.132-24.071 72.689-32.687 105.59 4.07-.391 8.151-1.056 12.216-1.7 18.693 2.108 40.04 7.752 56.527 13.354 4.942 2.938 9.807 6.033 14.633 9.177-1.236-.8 4.649-26.844 5.113-29.778 1.681-10.621 3.148-21.28 4.15-31.984 1.853-19.881.744-39.006-4.913-57.969z" class="cls-6" data-name="Path 290" transform="translate(-707.692 -290.806)"/>
            <g id="Group_311" data-name="Group 311" transform="translate(40.677)">
                <path id="Path_291" d="M815.846 297.6c-3.435-13.053-21.555-18.6-26.681-3.975-1.54 4.4-2.586 9.094-1.976 13.72s3.106 9.177 7.193 11.3c.023.012.047.021.07.033.7.361-3.24 7.862-3.519 8.462a13.778 13.778 0 0 0-1.092 2.9c-.476 2.254.2 4.582 1 6.742a58.037 58.037 0 0 0 2.515 5.8 1.115 1.115 0 0 0 .321.438c.361.252.851.01 1.215-.239a31.364 31.364 0 0 0 7.593-7.324 8.1 8.1 0 0 0 1.2-2.093 8.3 8.3 0 0 0 .339-2.728c0-2.567-2.176-8.9-.882-10.91.492-.764 2.9-1.323 3.737-1.836a18.332 18.332 0 0 0 3.729-3.1c4.143-4.415 6.828-11.144 5.238-17.19z" class="cls-1" data-name="Path 291" transform="translate(-776.691 -270.755)"/>
                <g id="Group_310" data-name="Group 310">
                    <path id="Path_292" d="M783.638 294.033c-2.054 3.313-1.933 7.366-1.413 11.1.509 3.65.106 7.217.953 10.832-.388.564-1.254.191-1.8-.224q-4.757-3.649-9.414-7.43a2.183 2.183 0 0 1-.987-2.394c.737-10.144 4.7-17.552 10.383-25.554 2.759-3.886 10.13-8.181 14.312-3.544a7.731 7.731 0 0 1 1.547 3.936 6.472 6.472 0 0 1 .08 2.547c-.763 3.323-3.872 3.138-6.307 4.2a16.888 16.888 0 0 0-7.354 6.531z" class="cls-23" data-name="Path 292" transform="translate(-770.959 -267.136)"/>
                    <path id="Path_293" d="M816.789 296.46a31.423 31.423 0 0 1-1.559 9c-.3.957-2.138 3.183-2.195 3.831-.165 1.877 3.694 6.287 4.7 7.927l18.113-10.052a2.254 2.254 0 0 0 1.506-2.407c.339-9.554-2.12-18.143-5.761-26.787s-11.8-15.662-21.417-15.062c-7.769.485-13.2 6.215-10.365 14.22 2.144 6.044 9.661 7.325 13.754 11.455a10.084 10.084 0 0 1 3.224 7.875z" class="cls-23" data-name="Path 293" transform="translate(-780.989 -262.879)"/>
                </g>
            </g>
        </g>
        <g id="Group_315" data-name="Group 315" transform="translate(142 166.95)">
            <g id="Group_313" data-name="Group 313" transform="translate(29.659)">
                <path id="Path_294" d="M245.659 248.756a2.2 2.2 0 0 0-.3.539c-.573 1.776.192 3.045.128 4.9-.029.829-1.859 1.924-.438 2.916.524.366 1.937 1.081 3.062 1.851 1.641 1.122 3.043 3.536 3.8 5.659 2.983 8.338 3.614 17.256 3.962 26.1a3.168 3.168 0 0 1-.183 1.486 3.331 3.331 0 0 1-2.21 1.42 67.7 67.7 0 0 0-11.577 4.839c-3.3 1.755-6.529 3.853-8.75 6.859s-3.282 7.083-1.932 10.569a8.873 8.873 0 0 0 6.071 5.325c6.744 1.64 12.773-6.513 17.147-10.545a120.453 120.453 0 0 0 11.578-12.274 5.183 5.183 0 0 0 1.079-1.767 5.261 5.261 0 0 0 0-2.2 262.906 262.906 0 0 0-5.907-27.981c-.653-2.548-2.563-4.429-3.145-6.79-.372-1.507.42-2.957.384-4.457a14.471 14.471 0 0 0-1.041-4.787c-1.144-2.691-4.084-3.384-6.593-4.243a3.144 3.144 0 0 0-1.657-.264 4.539 4.539 0 0 0-2.362 1.54 8.837 8.837 0 0 0-1.116 1.305z" class="cls-1" data-name="Path 294" transform="translate(-230.626 -245.878)"/>
            </g>
            <g id="Group_314" data-name="Group 314" transform="translate(0 49.757)">
                <path id="Path_295" d="M235.291 338.541l-7.091-15.272c.152.327-23.755 9.312-25.16 9.9-5.361 2.227-10.9 4.575-14.842 8.838-8.415 9.1-1.551 23.909 11.16 22.2 13.8-1.852 28.051-9.128 37.9-18.92a1.76 1.76 0 0 0 .515-.732 1.792 1.792 0 0 0-.243-1.191l-2.239-4.823z" class="cls-2" data-name="Path 295" transform="translate(-184.495 -323.269)"/>
            </g>
        </g>
        <g id="Group_321" data-name="Group 321" transform="translate(69.759 313.853)">
            <g id="Group_318" data-name="Group 318">
                <g id="Group_317" data-name="Group 317" transform="translate(0 54.865)">
                    <g id="Group_316" data-name="Group 316">
                        <path id="Path_296" d="M74.357 569.081c-.316 1.921-.527 3.85-.686 5.622-.273 3.041.211 6.51-.559 9.474a33.517 33.517 0 0 0-.9 3.516 5.345 5.345 0 0 0 .515 3.523 4.87 4.87 0 0 0 3.334 1.917 7.6 7.6 0 0 0 3.488.175c2.313-.574 4.018-3.064 4.724-5.745.844-3.208.419-6.367.3-9.615 0-5.12-1.369-9.487-1.157-14.645a4.157 4.157 0 0 0-.433-2.529 2.8 2.8 0 0 0-2.414-1.071c-1.831.051-3.6.563-4.334 2.309a31.977 31.977 0 0 0-1.878 7.069z" class="cls-7" data-name="Path 296" transform="translate(-72.133 -559.701)"/>
                    </g>
                    <path id="Path_297" d="M81.337 567.278a11.441 11.441 0 0 0-2.391 2.913c-.465.714-.935 1.65-.466 2.361a2.21 2.21 0 0 0 .743.617l3.485 2.116a1.234 1.234 0 0 0 .772.256 1.218 1.218 0 0 0 .59-.33 38.369 38.369 0 0 0 3.193-3.035c4.537-4.837-1.854-8.076-5.926-4.898z" class="cls-24" data-name="Path 297" transform="translate(-74.33 -561.955)"/>
                </g>
                <path id="Path_298" d="M162.78 491.5a4.962 4.962 0 0 0-2.264-2.606 97.253 97.253 0 0 0-33.856-14.526c-1.029-.229-7.583 20.143-8.214 22.12-2.448 7.673-4.531 15.457-6.317 23.309q-2.934 12.906-6.057 25.767a112.1 112.1 0 0 0-12.787-10.79 5.153 5.153 0 0 0-2.578-1.2 4.948 4.948 0 0 0-3.155 1.335 36.491 36.491 0 0 0-4.508 4.1A3.5 3.5 0 0 0 82 540.734a3.678 3.678 0 0 0 .42 1.96c4.5 10.72 11.615 27.959 17.324 38.1 2.761 4.906 8.055 6.585 13.428 6.164a12.687 12.687 0 0 0 3.525-.915c1.414-.5 2.954-.494 4.383-.987a5.912 5.912 0 0 0 2.334-1.788c5.754-6.4 9.673-15.38 13.144-23.177a241.465 241.465 0 0 0 9.607-26.06q.307-.979.625-1.942c4.355-13.214 10.237-24.586 15.5-37.557a4.574 4.574 0 0 0 .49-3.032z" class="cls-4" data-name="Path 298" transform="translate(-75.648 -474.366)"/>
            </g>
            <g id="Group_320" data-name="Group 320" transform="translate(66.301 .877)">
                <g id="Group_319" data-name="Group 319" transform="translate(3.772 148.039)">
                    <path id="Path_299" d="M182.327 725.03c1.876.724 3.838.6 5.759.966a99.851 99.851 0 0 0 3.807-20.01c-3.885 2.306-5.736-.314-7.514 5.738-.579 1.959-.752 10.456-2.052 13.306z" class="cls-24" data-name="Path 299" transform="translate(-181.552 -705.986)"/>
                    <path id="Path_300" d="M189.62 732.454c0 3.725 2.936 7.734 4.558 11.084a2.293 2.293 0 0 1-.373 3 4.784 4.784 0 0 1-1.944 1.83 4.562 4.562 0 0 1-2.621-.029q-2.176-.477-4.3-1.153a2.983 2.983 0 0 1-1-.465 3.085 3.085 0 0 1-.74-1.073c-1-2.014-1.851-3.443-1.8-5.686a34.267 34.267 0 0 0-.075-7.014c-.21-1.114-.487-2.538.467-3.15.737-.473 2.088.179 2.891.31 1.417.231 2.727.143 4.031.887a1.9 1.9 0 0 1 .689.592 1.583 1.583 0 0 1 .217.867z" class="cls-7" data-name="Path 300" transform="translate(-181.122 -714.427)"/>
                </g>
                <path id="Path_301" d="M177.87 523.673c.828 16.537 2.6 33.01 1.344 49.66-1.546 20.569-.231 41.507-2.556 61.88a49.706 49.706 0 0 0 7.192 1.909c2.8.522 7.308 1.128 9.2-1.515.967-1.351 1.2-3.964 1.614-5.553 1.318-5.087 2.52-10.2 3.709-15.322 3.368-14.481 7.116-29.033 8.86-43.8 1.834-15.535 3.8-31.083 5.963-46.513 1.117-7.974 1.932-15.992 2.367-24.034.112-2.072 1.215-23.444.172-23.6a97.241 97.241 0 0 0-36.807 1.564 4.957 4.957 0 0 0-3.042 1.632 4.582 4.582 0 0 0-.62 3.01c.228 10.081 1.657 19.913 2.1 30.021.152 3.522.323 7.044.504 10.661z" class="cls-4" data-name="Path 301" transform="translate(-175.255 -475.731)"/>
            </g>
        </g>
        <path id="Path_302" d="M151.668 343.021q-.3.1-.6.215c-3.325 1.261-6.152 3.532-8.918 5.766-4.155 3.355-6.2 4.827-7.805 9.8A120.79 120.79 0 0 0 131 373.1c-4.7 24.521-5.613 48.939-8.99 73.644-.919 6.725-1.629 14.631 3.345 19.249 8.824-6.868 19.917-7.265 30.619-7.273 7.516-.007 14.865-2.441 22.4-1.6 7.2.8 13.489-1 20.8-.523 1.762.115 4.007.1 4.7-1.528-2.529-7.58-2.485-15.731-3.058-23.7-1.48-20.616-8.31-40.4-11.066-60.875-.937-6.96-1.436-18.512-6.827-23.78-5.857-5.725-19.218-5.842-26.745-4.722a25.968 25.968 0 0 0-4.51 1.029z" class="cls-6" data-name="Path 302" transform="translate(-19.948 -113.049)"/>
        <g id="Group_325" data-name="Group 325" transform="translate(99.83 162.886)">
            <g id="Group_324" data-name="Group 324">
                <g id="Group_323" data-name="Group 323" transform="translate(28.731 17.425)">
                    <g id="Group_322" data-name="Group 322" transform="translate(0 8.313)">
                        <path id="Path_303" d="M172.342 320.591a2.684 2.684 0 0 0 .511.69 5.873 5.873 0 0 0 3.289 1.524 14.571 14.571 0 0 0 4.771-.336c2.126-.406 2.05-1.65 2.359-3.579a38.57 38.57 0 0 0 .353-3.181c.043-.583-.183-2.673.189-3.081.253-.278 1.28-.184 1.73-.419a4.96 4.96 0 0 0 1.738-1.726 13.934 13.934 0 0 0 1.444-3.537l1.944-6.381a33.779 33.779 0 0 0 1.54-6.626c.321-3.409-.23-8.222-2.8-10.715-2.347-2.274-5.772-3.07-8.913-3.471a18.569 18.569 0 0 0-12.062 2.437 9.933 9.933 0 0 0-3.681 3.636c-1.321 2.45-1.22 5.509-1.078 8.37q.2 3.96.393 7.92c.151 3.037.529 6.535 2.8 8.182 1.208.874 2.787 1.061 3.821 2.182 1.3 1.4 1.211 3.511 1.266 5.291a6.49 6.49 0 0 0 .386 2.82z" class="cls-1" data-name="Path 303" transform="translate(-163.593 -279.589)"/>
                    </g>
                    <path id="Path_304" d="M192.161 281.847a4.427 4.427 0 0 1 .356.772c.485 1.4.158 2.979.631 4.383.75 2.225 3.347 3.563 3.739 5.878.32 1.893-.974 3.694-1.083 5.611-.12 2.095 1.222 4.077 1.014 6.145a13.682 13.682 0 0 1-2.392 5.76c.332-.446 3.339-.287 4.119-.764a3.158 3.158 0 0 0 1.687-2.435c.353-1.237.079-2.455.629-3.722.675-1.554 2.062-2.695 2.548-4.352.663-2.261-.541-4.647-.447-7 .142-3.564 3.222-6.921 2.1-10.308-.656-1.987-2.586-3.257-3.671-5.046a26.9 26.9 0 0 1-1.7-4.443 5.3 5.3 0 0 0-3.078-3.415 25.726 25.726 0 0 0-2.625-.309c-1.5-.28-2.747-1.315-4.192-1.8-2.068-.7-5.716 1.391-6.922 3.143s-.593 3.219.631 4.756c2.043 2.557 6.972 4.233 8.656 7.146z" class="cls-7" data-name="Path 304" transform="translate(-170.247 -266.659)"/>
                </g>
                <path id="Path_305" d="M150.141 269.63a39.527 39.527 0 0 0-3.9 2.628c-2.206 2.072-2.626 5.384-2.705 8.409-.071 2.693-1.249 5.086-.957 7.893a6.87 6.87 0 0 0 2.531 4.9c1.911 1.386 4.91 1.614 5.763 3.815.926 2.391-1.551 5.4-.048 7.479.829 1.146 2.455 1.314 3.642 2.084 1.324.86 2 2.394 2.813 3.749s2.023 2.713 3.6 2.747c.064-2.4.135-4.3-.89-6.5-.6-1.279-2.355-3.637-1-5.022.852-1.151 2.863-1.525 2.914-2.956a3.3 3.3 0 0 0-.814-1.8 8.232 8.232 0 0 1-.607-7.482 10.7 10.7 0 0 1 5.313-5.477c2.745-1.33 2.3-2 3.1-4.628.734-2.418 2.106-2.986 4.283-3.867 1.955-.791 2.583-1.285 3.3-3.114.528-1.339 1.178-2.942.413-4.436a9.032 9.032 0 0 0-2.765-2.845c-2.216-1.69-4.706-3.467-7.486-3.267-1.544.111-3 .837-4.542.925-1.031.059-2.055-.17-3.087-.2a8.211 8.211 0 0 0-5.039 1.524c-1.437 1.056-1.4 2.162-2.194 3.662a5.373 5.373 0 0 1-1.638 1.779z" class="cls-7" data-name="Path 305" transform="translate(-127.342 -247.545)"/>
                <path id="Path_306" d="M147.929 251.775c.27-1.672.1-3.851-1.5-4.416-.874-.309-1.855.03-2.765-.156-1.938-.394-2.6-2.741-3.614-4.438a1.468 1.468 0 0 0-.6-.632 2.382 2.382 0 0 0-1.251.032c-1.929.235-3.394-1.668-5.21-2.358a4.56 4.56 0 0 0-5.754 2.858c-.278.948-.23 1.967-.491 2.92-1.058 3.861-6.713 5.5-6.856 9.5-.1 2.7 2.549 5.294 1.521 7.8-.658 1.6-2.716 2.691-2.481 4.4a2.387 2.387 0 0 0 2.439 1.837 4.793 4.793 0 0 0 2.974-1.359c1.331-1.162 2.333-2.653 3.6-3.883a6.021 6.021 0 0 1 4.711-2.009c1.7.211 3.234 1.533 4.922 1.25 1.35-.226 2.352-1.43 3.678-1.769 1.24-.318 2.53.17 3.808.247s2.848-.588 2.882-1.868a3.2 3.2 0 0 1 .019-.924c.273-.826 1.682-.778 1.95-1.605-.667-1.029-1.608-.66-2.086-2a7.383 7.383 0 0 1 .104-3.427z" class="cls-7" data-name="Path 306" transform="translate(-118.906 -239.556)"/>
            </g>
        </g>
        <g id="Group_328" data-name="Group 328" transform="translate(91.433 232.049)">
            <g id="Group_326" data-name="Group 326" transform="translate(0 24.141)">
                <path id="Path_307" d="M143.879 454.983a2.2 2.2 0 0 0 .071-.611c-.145-1.861-1.334-2.744-1.981-4.488-.289-.777.989-2.486-.7-2.864-.624-.139-2.2-.265-3.536-.549-1.944-.415-4.158-2.115-5.666-3.79-5.927-6.579-9.9-14.589-13.579-22.636a3.176 3.176 0 0 1-.4-1.445 3.331 3.331 0 0 1 1.506-2.153 67.743 67.743 0 0 0 8.871-8.875c2.385-2.877 4.575-6.044 5.487-9.668s.345-7.8-2.227-10.51a8.874 8.874 0 0 0-7.639-2.619c-6.862 1.045-9.341 10.877-11.856 16.269a120.4 120.4 0 0 0-6.044 15.752 5.182 5.182 0 0 0-.328 2.044 5.27 5.27 0 0 0 .838 2.039 263.077 263.077 0 0 0 16.094 23.639c1.572 2.109 4.053 3.123 5.489 5.086.916 1.252.734 2.895 1.337 4.268a14.482 14.482 0 0 0 2.784 4.028c2.081 2.055 5.063 1.579 7.71 1.421a3.141 3.141 0 0 0 1.633-.386 4.536 4.536 0 0 0 1.6-2.322 8.793 8.793 0 0 0 .536-1.63z" class="cls-1" data-name="Path 307" transform="translate(-105.844 -384.678)"/>
            </g>
            <g id="Group_327" data-name="Group 327" transform="translate(4.191)">
                <path id="Path_308" d="M116.95 386.4l12.36 11.433c-.264-.245 18.437-17.638 19.515-18.711 4.113-4.1 8.345-8.373 10.372-13.813 4.326-11.618-7.648-22.706-18.758-16.3-12.061 6.955-22.48 19.1-27.871 31.9a1.755 1.755 0 0 0-.2.872 1.786 1.786 0 0 0 .677 1.009z" class="cls-2" data-name="Path 308" transform="translate(-112.363 -347.13)"/>
            </g>
        </g>
        <g id="Group_345" data-name="Group 345" transform="translate(65.483 37.528)">
            <g id="Group_344" data-name="Group 344">
                <g id="Group_335" data-name="Group 335">
                    <g id="Group_330" data-name="Group 330">
                        <g id="Group_329" data-name="Group 329">
                            <circle id="Ellipse_32" cx="64.374" cy="64.374" r="64.374" class="cls-8" data-name="Ellipse 32" transform="rotate(-45 109.894 45.52)"/>
                        </g>
                    </g>
                    <g id="Group_332" data-name="Group 332" transform="translate(29.435 47.307)">
                        <g id="Group_331" data-name="Group 331">
                            <path id="Path_309" d="M220.2 118.159a64.384 64.384 0 0 1-108.938 62.3 64.379 64.379 0 1 0 108.938-62.3z" class="cls-9" data-name="Path 309" transform="translate(-111.265 -118.159)"/>
                        </g>
                    </g>
                    <g id="Group_334" data-name="Group 334" transform="translate(30.923 31.314)">
                        <g id="Group_333" data-name="Group 333">
                            <path id="Path_310" d="M118.316 144.439a59.766 59.766 0 0 1 113.012-5.967 59.771 59.771 0 1 0-113.458 36.793 59.485 59.485 0 0 1 .446-30.826z" class="cls-10" data-name="Path 310" transform="translate(-113.58 -93.284)"/>
                        </g>
                    </g>
                </g>
                <g id="Group_341" data-name="Group 341" transform="translate(67.399 61.764)">
                    <g id="Group_340" data-name="Group 340">
                        <g id="Group_337" data-name="Group 337">
                            <g id="Group_336" data-name="Group 336">
                                <path id="Path_311" d="M179.934 149.736c-1.2 4.25-4.215 7.118-6.736 6.407s-3.593-4.733-2.394-8.982 4.215-7.118 6.736-6.407 3.593 4.733 2.394 8.982z" class="cls-13" data-name="Path 311" transform="translate(-170.313 -140.646)"/>
                            </g>
                        </g>
                        <g id="Group_339" data-name="Group 339" transform="translate(45.65 12.881)">
                            <g id="Group_338" data-name="Group 338">
                                <path id="Path_312" d="M250.936 169.772c-1.2 4.249-4.215 7.117-6.736 6.406s-3.593-4.733-2.394-8.982 4.215-7.118 6.736-6.407 3.593 4.733 2.394 8.983z" class="cls-13" data-name="Path 312" transform="translate(-241.315 -160.681)"/>
                            </g>
                        </g>
                    </g>
                </g>
                <g id="Group_342" data-name="Group 342" transform="translate(47.181 85.151)">
                    <path id="Path_313" d="M139.439 177.021a43.536 43.536 0 0 0 83.261 23.495z" class="cls-11" data-name="Path 313" transform="translate(-138.866 -177.021)"/>
                </g>
                <g id="Group_343" data-name="Group 343" transform="translate(53.373 113.787)">
                    <path id="Path_314" d="M148.5 222.271a43.495 43.495 0 0 0 56.276 16.856l-.131-1.009c-24.113-21.518-55.716-15.925-56.145-15.847z" class="cls-12" data-name="Path 314" transform="translate(-148.497 -221.56)"/>
                </g>
            </g>
        </g>
        <g id="Group_360" data-name="Group 360" transform="translate(346.413 275.759)">
            <g id="Group_352" data-name="Group 352">
                <g id="Group_347" data-name="Group 347">
                    <g id="Group_346" data-name="Group 346">
                        <circle id="Ellipse_33" cx="114.726" cy="114.726" r="114.726" class="cls-8" data-name="Ellipse 33"/>
                    </g>
                </g>
                <g id="Group_349" data-name="Group 349" transform="translate(18.05 16.807)">
                    <g id="Group_348" data-name="Group 348">
                        <path id="Path_315" d="M687.2 441.256a114.743 114.743 0 0 1-156.7 159.58 114.735 114.735 0 1 0 156.7-159.58z" class="cls-9" data-name="Path 315" transform="translate(-530.505 -441.256)"/>
                    </g>
                </g>
                <g id="Group_351" data-name="Group 351" transform="translate(7.665 8.471)">
                    <g id="Group_350" data-name="Group 350">
                        <path id="Path_316" d="M522.281 546.65a106.514 106.514 0 0 1 190.95-64.931 106.523 106.523 0 1 0-176.8 118.02 106.023 106.023 0 0 1-14.15-53.089z" class="cls-10" data-name="Path 316" transform="translate(-514.353 -428.291)"/>
                    </g>
                </g>
            </g>
            <g id="Group_353" data-name="Group 353" transform="translate(61.244 125.441)">
                <path id="Path_317" d="M604.145 611.332a3.785 3.785 0 0 0-6.159 4.129 57.507 57.507 0 0 0 106.348 1.056 3.782 3.782 0 0 0-6.112-4.175c-16.79 16.279-52.434 39.442-94.077-1.01z" class="cls-25" data-name="Path 317" transform="translate(-597.689 -610.223)"/>
            </g>
            <g id="Group_359" data-name="Group 359" transform="translate(64.006 71.798)">
                <g id="Group_358" data-name="Group 358">
                    <g id="Group_355" data-name="Group 355">
                        <g id="Group_354" data-name="Group 354">
                            <ellipse id="Ellipse_34" cx="8.453" cy="14.248" class="cls-13" data-name="Ellipse 34" rx="8.453" ry="14.248"/>
                        </g>
                    </g>
                    <g id="Group_357" data-name="Group 357" transform="translate(84.533)">
                        <g id="Group_356" data-name="Group 356">
                            <ellipse id="Ellipse_35" cx="8.453" cy="14.248" class="cls-13" data-name="Ellipse 35" rx="8.453" ry="14.248"/>
                        </g>
                    </g>
                </g>
            </g>
        </g>
        <g id="Group_375" data-name="Group 375" transform="translate(592.689 99.85)">
            <g id="Group_374" data-name="Group 374">
                <g id="Group_367" data-name="Group 367" transform="translate(5.742)">
                    <g id="Group_362" data-name="Group 362">
                        <g id="Group_361" data-name="Group 361">
                            <circle id="Ellipse_36" cx="67.632" cy="67.632" r="67.632" class="cls-8" data-name="Ellipse 36" transform="rotate(-1.174 135.23 1.386)"/>
                        </g>
                    </g>
                    <g id="Group_364" data-name="Group 364" transform="translate(13.785 9.678)">
                        <g id="Group_363" data-name="Group 363">
                            <path id="Path_318" d="M1003.7 156.565a67.642 67.642 0 0 1-87.847 98.316 67.637 67.637 0 1 0 87.847-98.316z" class="cls-9" data-name="Path 318" transform="translate(-915.853 -156.565)"/>
                        </g>
                    </g>
                    <g id="Group_366" data-name="Group 366" transform="translate(5.896 6.379)">
                        <g id="Group_365" data-name="Group 365">
                            <path id="Path_319" d="M908.65 223.935a62.791 62.791 0 0 1 110.642-43.535 62.8 62.8 0 1 0-100.835 74.4 62.5 62.5 0 0 1-9.807-30.865z" class="cls-10" data-name="Path 319" transform="translate(-903.582 -151.434)"/>
                        </g>
                    </g>
                </g>
                <g id="Group_370" data-name="Group 370" transform="translate(33.353 45.621)">
                    <g id="Group_368" data-name="Group 368" transform="translate(0 2.734)">
                        <path id="Path_320" d="M960.644 224.055a12.531 12.531 0 0 0-23.159.86 2.015 2.015 0 0 0 3.358 2.073c3.577-3.811 9.366-7.008 16.631-.586a2.015 2.015 0 0 0 3.17-2.347z" class="cls-13" data-name="Path 320" transform="translate(-937.359 -216.721)"/>
                    </g>
                    <g id="Group_369" data-name="Group 369" transform="translate(58.042)">
                        <path id="Path_321" d="M1050.92 219.8a12.53 12.53 0 0 0-23.157.86 2.014 2.014 0 0 0 3.357 2.073c3.577-3.811 9.364-7.007 16.63-.586a2.015 2.015 0 0 0 3.169-2.347z" class="cls-13" data-name="Path 321" transform="translate(-1027.635 -212.469)"/>
                    </g>
                </g>
                <g id="Group_371" data-name="Group 371" transform="translate(0 70.701)">
                    <path id="Path_322" d="M930.623 263.939v-.107c-.318-6.741-5.484-12.684-12.814-12.339-5.826.274-9.006 4.62-9.974 8.593-1.337-3.865-4.912-7.892-10.737-7.617-7.331.345-11.916 6.748-11.6 13.489 0 .036.006.071.008.107.03 1.468.769 16.392 23.9 27.493h.009c21.985-13.228 21.316-28.158 21.208-29.619z" class="cls-26" data-name="Path 322" transform="translate(-885.482 -251.479)"/>
                </g>
                <g id="Group_373" data-name="Group 373" transform="translate(64.162 69.889)">
                    <g id="Group_372" data-name="Group 372">
                        <path id="Path_323" d="M997.63 286.9a11.147 11.147 0 0 1-9.36-17.936 11.15 11.15 0 1 1 17.152-14.189 1.911 1.911 0 0 1-3.081 2.261 7.327 7.327 0 1 0-10.218 10.254 1.911 1.911 0 0 1 .14 2.978 7.326 7.326 0 1 0 11.105 9.3 1.911 1.911 0 0 1 3.264 1.989 11.144 11.144 0 0 1-9.002 5.343z" class="cls-25" data-name="Path 323" transform="translate(-985.277 -250.215)"/>
                    </g>
                </g>
            </g>
        </g>
        <g id="Group_376" data-name="Group 376" transform="translate(535.305 240.063)">
            <path id="Path_324" d="M807.007 512a14.426 14.426 0 0 1-1.388 2.947 4.482 4.482 0 0 1-1.071 1.276 5.292 5.292 0 0 1-1.04.556l-2.553 1.13a1.558 1.558 0 0 1-.9.2 1.527 1.527 0 0 1-.6-.325q-1.441-1.091-2.8-2.279a1.22 1.22 0 0 1-.372-.451 1.182 1.182 0 0 1 .35-1.092c1.259-1.567.806-2.15 1.209-3.845a4.87 4.87 0 0 1 1.951-2.473q2.16-1.92 4.333-3.827c.163-.144 3.51 2.219 3.915 2.472-.53 1.27-.292 2.859-.6 4.223a14.6 14.6 0 0 1-.434 1.488z" class="cls-20" data-name="Path 324" transform="translate(-796.228 -411.089)"/>
            <path id="Path_325" d="M811.679 361.492a9.234 9.234 0 0 0-1.649 2.092c-2.027 3.451-2.326 7.724-1.636 11.675 1.094 6.256 4.162 12.21 5.956 18.3l6.152 20.9-16.56 39.092 8.013 4.505 28.99-43.356c-3.171-9.116-6.3-18.011-8.883-27.26-2.312-8.291-3.1-17.7-8.948-24.413-3.304-3.797-8.114-4.639-11.435-1.535z" class="cls-2" data-name="Path 325" transform="translate(-798.982 -359.595)"/>
        </g>
        <g id="Group_404" data-name="Group 404" transform="translate(197.728 222.942)">
            <path id="Path_326" d="M325.369 660.455c-1.476 8.011-2.686 17.143 2.515 23.516 5.012 6.142 13.99 7.25 22.022 7.889 13.414 1.068 27.9 1.9 39.3-5.072a30.962 30.962 0 0 0 14.472-22.254 4.263 4.263 0 0 0-.039-1.71 4.741 4.741 0 0 0-1.456-1.964L387.66 647.1a17.566 17.566 0 0 0-3.834-3.007 17.136 17.136 0 0 0-3.939-1.308c-12.765-3.07-29.4-7.134-42.6-5.118-11.443 1.75-10.176 13.333-11.918 22.788z" class="cls-3" data-name="Path 326" transform="translate(-290.07 -441.572)"/>
            <g id="Group_379" data-name="Group 379" transform="translate(1.978 77.91)">
                <g id="Group_378" data-name="Group 378">
                    <g id="Group_377" data-name="Group 377">
                        <path id="Path_327" d="M315.506 535.526a9.259 9.259 0 0 0-1.569-10.641L298.9 509.2c-2.813-2.936-7.094-6.033-8.726-9.662-2.885-6.416-3.77-14.73-5.183-21.592-.718-3.485-2.435-8.107-1.986-11.653.084-.665 2.681-6.352 2.531-6.456l-1.213-1-.985 1.213-1.1.108 1.78-4.27-4.989-1.744-4.786 3.821c.827 3.755 2.644 7.378 2.558 11.272-.036 1.647-.341 3.275-.518 4.913-.3 2.813-.225 5.646-.264 8.469-.037 2.732-.611 5.466-.61 8.155 0 6 .044 12 .066 18l24.428 28.561a9.474 9.474 0 0 0 15.603-1.809z" class="cls-1" data-name="Path 327" transform="translate(-274.248 -454.144)"/>
                    </g>
                </g>
                <path id="Path_328" d="M302.409 530.542q.248-1.175.512-2.342c3.287-.143 6.6.286 9.911.045 4.076-.3 8.082-1.222 12.15-1.618 1.83-.179 3.668-.25 5.505-.321 8.113-.315 2.576 11.889 1.5 16.153a144.891 144.891 0 0 1-6.02 18.72 90.356 90.356 0 0 1-4.364 9.373c-.836 1.54-2.489 6.483-4.232 6.941-1.4.37-2.556-1.08-3.334-2.306a51.156 51.156 0 0 0-15.031-15.287 2.28 2.28 0 0 1-1.015-1.033 2.224 2.224 0 0 1-.015-1.047c1.324-9.12 2.545-18.328 4.433-27.278z" class="cls-2" data-name="Path 328" transform="translate(-282.7 -479.908)"/>
            </g>
            <g id="Group_382" data-name="Group 382" transform="translate(78.271 75.223)">
                <g id="Group_381" data-name="Group 381" transform="translate(9.854)">
                    <g id="Group_380" data-name="Group 380">
                        <path id="Path_329" d="M409.257 531.346a9.259 9.259 0 0 1 1.569-10.641l15.032-15.687c2.814-2.936 7.094-6.033 8.726-9.662 2.885-6.416 3.771-14.73 5.183-21.592.718-3.485 2.435-8.107 1.986-11.653-.084-.665-2.681-6.353-2.532-6.456l1.213-1 .984 1.214 1.1.108-1.78-4.27 4.99-1.744 4.786 3.821c-.827 3.755-2.644 7.377-2.559 11.272.036 1.647.341 3.275.518 4.913.3 2.813.225 5.646.264 8.47.038 2.732.611 5.466.611 8.155 0 6-.044 12-.067 18l-24.427 28.562a9.474 9.474 0 0 1-15.597-1.81z" class="cls-1" data-name="Path 329" transform="translate(-408.239 -449.964)"/>
                    </g>
                </g>
                <path id="Path_330" d="M425.333 526.362q-.247-1.175-.511-2.342c-3.287-.143-6.6.286-9.911.045-4.076-.3-8.082-1.222-12.15-1.618-1.83-.179-3.668-.25-5.505-.321-8.113-.314-2.576 11.89-1.5 16.154a144.929 144.929 0 0 0 6.02 18.72 90.5 90.5 0 0 0 4.364 9.373c.837 1.54 2.49 6.483 4.232 6.941 1.4.369 2.556-1.08 3.334-2.307a51.163 51.163 0 0 1 15.029-15.281 2.279 2.279 0 0 0 1.015-1.033 2.216 2.216 0 0 0 .016-1.047c-1.325-9.13-2.545-18.335-4.433-27.284z" class="cls-2" data-name="Path 330" transform="translate(-392.912 -475.728)"/>
            </g>
            <g id="Group_385" data-name="Group 385" transform="translate(29.342 65.26)">
                <path id="Path_331" d="M346.674 520.274c-6.593 1.249-12.285 3.816-16.08 10.348-2.72 4.681-3.856 10.162-5 15.4-3 13.68-4.335 27.626-5.833 41.528-1.434 13.306-5.244 27.341-1.009 40.465.566 1.757 2.183 3.862 3.791 2.957l2.5-8.708a9.32 9.32 0 0 1 1.576-3.531 8.484 8.484 0 0 1 2.74-1.94 47.572 47.572 0 0 1 17.957-5.032c13.16-.992 26.045 3.5 38.476 7.932l15.348 5.468c-.888-13.169-1.609-26.972-4.31-39.863-2.882-13.757-7.883-26.991-10.315-40.854-1.051-5.987-1.7-15.913-7.351-20.5-6.142-4.982-20.007-5.233-27.8-4.356-1.606.18-3.172.398-4.69.686z" class="cls-6" data-name="Path 331" transform="translate(-316.809 -464.721)"/>
                <g id="Group_384" data-name="Group 384" transform="translate(9.398)">
                    <g id="Group_383" data-name="Group 383">
                        <path id="Path_332" d="M365.917 502.443c-1.29.856-4.509 1.514-8.068.619a1.785 1.785 0 0 1-1.346-1.515 46.151 46.151 0 0 1-.289-6.216c.011-.536-7.32-2.864-8.144-3.461-4.592-3.327-5.387-9.282-5.645-14.537-.118-2.415-.172-4.983 1.052-7.068 1.4-2.38 4.146-3.591 6.8-4.362a38.321 38.321 0 0 1 13.468-1.422c4.132.3 8.619 1.553 10.872 5.029 3.236 4.992 2.415 14.8-.338 19.793-1.592 2.89-4.147 3.806-6.177 6.061-1.88 2.084-1.326 4.551-2.185 7.079z" class="cls-19" data-name="Path 332" transform="translate(-335.333 -445.149)"/>
                        <path id="Path_333" d="M374.362 452.932c.642-1.146 1.27-2.261.859-3.442a17.167 17.167 0 0 0-1.4-2.138c-.98-1.856.2-4.218-.48-6.2-.9-2.609-4.665-3.685-4.922-6.431-.993-.885-2.165.818-3.278 1.548-2.524 1.657-5.54-2.21-8.526-1.762-2.273.341-3.771 3.112-6.067 3.007-1.718-.079-3.393-1.8-4.911-.992-.671.357-1.025 1.114-1.615 1.594-1.881 1.535-5.583 0-6.631 2.187-.615 1.284-.354 2.42-1.676 3.282-1.159.755-3.449-.483-4.161 1.168a2.506 2.506 0 0 0-.1 1.168l.82 11.96a5.933 5.933 0 0 0 .812 3.129c.452.624 1.151 1.075 1.455 1.784.375.875.047 1.9.273 2.826.365 1.5 5.239 9.2 6.695 6.644a4.681 4.681 0 0 0 .165-3.1c-.258-1.525-.446-3.195.336-4.529 1.234-2.109 4.126-2.322 6.565-2.474a16.19 16.19 0 0 0 6.606-1.524c1.4-.737 3.255-1.767 4.322-.6.277.3.43.716.754.968a1.885 1.885 0 0 0 2.056-.174 4.473 4.473 0 0 1 1.97-.911c.731-.031 1.507.781 1.106 1.394.251.736 1.309-.23 2.085-.18.644.041.931.812 1.066 1.442l1.218 5.686a3.745 3.745 0 0 0 3.714-2.34c1.652-3.733-.9-7.31-.048-10.875a8.572 8.572 0 0 1 .938-2.115z" class="cls-27" data-name="Path 333" transform="translate(-331.427 -434.468)"/>
                    </g>
                </g>
            </g>
            <g id="Group_399" data-name="Group 399">
                <g id="Group_392" data-name="Group 392">
                    <g id="Group_387" data-name="Group 387">
                        <g id="Group_386" data-name="Group 386">
                            <circle id="Ellipse_37" cx="62.945" cy="62.945" r="62.945" class="cls-8" data-name="Ellipse 37"/>
                        </g>
                    </g>
                    <g id="Group_389" data-name="Group 389" transform="translate(11.64 7.66)">
                        <g id="Group_388" data-name="Group 388">
                            <path id="Path_334" d="M370.819 344.879a62.955 62.955 0 0 1-81.543 91.7 62.95 62.95 0 1 0 81.543-91.7z" class="cls-9" data-name="Path 334" transform="translate(-289.276 -344.879)"/>
                        </g>
                    </g>
                    <g id="Group_391" data-name="Group 391" transform="translate(4.211 4.661)">
                        <g id="Group_390" data-name="Group 390">
                            <path id="Path_335" d="M282.46 407.819a58.44 58.44 0 0 1 102.878-40.758 58.445 58.445 0 1 0-93.683 69.466 58.171 58.171 0 0 1-9.195-28.708z" class="cls-10" data-name="Path 335" transform="translate(-277.722 -340.215)"/>
                        </g>
                    </g>
                </g>
                <g id="Group_393" data-name="Group 393" transform="translate(34.028 68.039)">
                    <path id="Path_336" d="M327.567 441.451a2.077 2.077 0 0 0-3.263 2.43 31.552 31.552 0 0 0 58.306-2.3 2.075 2.075 0 0 0-3.463-2.122c-8.759 9.371-27.664 23.031-51.58 1.992z" class="cls-25" data-name="Path 336" transform="translate(-324.098 -438.791)"/>
                </g>
                <g id="Group_396" data-name="Group 396" transform="translate(24.236 37.685)">
                    <g id="Group_394" data-name="Group 394" transform="translate(54.013)">
                        <path id="Path_337" d="M392.983 399.45a11.662 11.662 0 0 1 21.53-1.279 1.874 1.874 0 0 1-2.925 2.221c-3.655-3.21-9.3-5.651-15.459.949a1.875 1.875 0 0 1-3.146-1.89z" class="cls-13" data-name="Path 337" transform="translate(-392.878 -391.58)"/>
                    </g>
                    <g id="Group_395" data-name="Group 395" transform="translate(0 2.673)">
                        <path id="Path_338" d="M308.974 403.606a11.662 11.662 0 0 1 21.529-1.28 1.875 1.875 0 0 1-2.924 2.222c-3.655-3.21-9.3-5.652-15.459.948a1.875 1.875 0 0 1-3.146-1.89z" class="cls-13" data-name="Path 338" transform="translate(-308.868 -395.737)"/>
                    </g>
                </g>
                <g id="Group_397" data-name="Group 397" transform="translate(1.634 58.46)">
                    <circle id="Ellipse_38" cx="10.99" cy="10.99" r="10.99" class="cls-14" data-name="Ellipse 38" transform="rotate(-47.832 18.368 8.146)"/>
                </g>
                <g id="Group_398" data-name="Group 398" transform="translate(94.077 53.886)">
                    <circle id="Ellipse_39" cx="10.99" cy="10.99" r="10.99" class="cls-14" data-name="Ellipse 39" transform="rotate(-47.832 18.368 8.146)"/>
                </g>
            </g>
            <g id="Group_401" data-name="Group 401" transform="translate(40.803 165.42)">
                <g id="Group_400" data-name="Group 400" transform="translate(4.726 76.121)">
                    <path id="Path_339" d="M357.331 727.387c-1.815.395-3.588 0-5.394.066a92.256 92.256 0 0 1-.639-18.8c3.22 2.655 5.28.525 6.046 6.3.246 1.868-.796 9.647-.013 12.434z" class="cls-7" data-name="Path 339" transform="translate(-345.234 -708.649)"/>
                    <path id="Path_340" d="M347.822 733.12c-2.2-.435-1.924 4.613-1.766 5.786a8.779 8.779 0 0 1 .208 2.117 5.673 5.673 0 0 1-.877 2.159l-2.46 4.258a6.672 6.672 0 0 0-.884 2.014 3.929 3.929 0 0 0 2.682 4.238c6.016 1.992 10.106-5.613 10.644-10.311.083-.721.113-1.445.144-2.17.063-1.5.692-4.838-.1-6.175-.922-1.56-2.786-.052-4.218-.478-1.327-.396-2.484-1.258-3.373-1.438z" class="cls-27" data-name="Path 340" transform="translate(-341.986 -717.377)"/>
                </g>
                <path id="Path_341" d="M360.118 595.249a18.981 18.981 0 0 1 1.48 1.881c3.6 5.217 4.872 11.757 4.731 18.094s-1.6 12.56-3.048 18.73c-1.75 7.446-4 14.875-4.374 22.453-.1 1.983-2.844 24.288-2.428 24.288a52.471 52.471 0 0 1-7.81.826c-3 .092-7.806-.006-9.351-3.07-.79-1.566-.612-4.33-.784-6.053-.55-5.52-.975-11.052-1.387-16.583-.825-11.053-1.839-22.1-2.164-33.182-.28-9.59-1.81-19.033 4.917-26.873 2.531-2.948 6.026-5.331 9.908-5.5 3.953-.168 7.633 1.999 10.31 4.989z" class="cls-3" data-name="Path 341" transform="translate(-334.636 -590.253)"/>
            </g>
            <g id="Group_403" data-name="Group 403" transform="translate(66.829 165.206)">
                <g id="Group_402" data-name="Group 402" transform="translate(14.932 72.588)">
                    <path id="Path_342" d="M400.672 722.288c1.876.315 3.671-.175 5.522-.2a94.493 94.493 0 0 0-.268-19.268c-3.164 2.874-5.376.8-5.876 6.744-.161 1.927 1.286 9.836.622 12.724z" class="cls-7" data-name="Path 342" transform="translate(-398.946 -702.822)"/>
                    <path id="Path_343" d="M406.324 727.831c2.225-.553 2.2 4.625 2.09 5.833a9 9 0 0 0-.109 2.175 5.826 5.826 0 0 0 1 2.166l2.726 4.234a6.85 6.85 0 0 1 1 2.018 4.023 4.023 0 0 1-2.536 4.467c-6.056 2.333-10.614-5.246-11.4-10.027-.12-.733-.186-1.473-.253-2.212-.138-1.53-.945-4.916-.2-6.322.867-1.641 2.848-.19 4.292-.7 1.347-.463 2.49-1.407 3.39-1.632z" class="cls-27" data-name="Path 343" transform="translate(-398.34 -711.737)"/>
                </g>
                <path id="Path_344" d="M380.313 595.241a18.477 18.477 0 0 0-1.35 1.894c-3.249 5.232-4.181 11.64-3.75 17.785s2.135 12.118 3.83 18.039c2.045 7.146 4.579 14.253 5.29 21.592.186 1.921 3.892 23.444 3.489 23.463a50.922 50.922 0 0 0 7.62.439c2.919-.051 7.576-.37 8.934-3.415.694-1.557.392-4.232.479-5.913.278-5.383.433-10.774.575-16.161.286-10.768.757-21.538.556-32.311-.174-9.322.871-18.559-6.024-25.856-2.594-2.745-6.1-4.9-9.873-4.876-3.845.019-7.317 2.293-9.776 5.32z" class="cls-3" data-name="Path 344" transform="translate(-375.115 -589.921)"/>
            </g>
        </g>
    </g>
</svg>
