<svg xmlns="http://www.w3.org/2000/svg" width="555" height="176" viewBox="0 0 555 176">
    <defs>
        <style>
            .cls-1{fill:#fff}
        </style>
    </defs>
    <g id="Group_82" data-name="Group 82" transform="translate(-56 -1781)">
        <g id="smile" transform="translate(207 1789)">
            <g id="Group_81" data-name="Group 81">
                <g id="Group_80" data-name="Group 80">
                    <path id="Path_1" d="M128.8 224.321a1.261 1.261 0 0 0-1.78.1 14.027 14.027 0 0 1-20.817 0 1.261 1.261 0 1 0-1.879 1.682 16.549 16.549 0 0 0 24.574 0 1.262 1.262 0 0 0-.098-1.782z" class="cls-1" data-name="Path 1" transform="translate(-87.609 -188.695)"/>
                    <path id="Path_2" d="M29 0a29 29 0 1 0 29 29A29.033 29.033 0 0 0 29 0zm0 55.478A26.478 26.478 0 1 1 55.478 29 26.507 26.507 0 0 1 29 55.478z" class="cls-1" data-name="Path 2"/>
                    <path id="Path_3" d="M214.3 128a6.311 6.311 0 0 0-6.3 6.3 1.261 1.261 0 0 0 2.522 0 3.783 3.783 0 0 1 7.565 0 1.261 1.261 0 0 0 2.522 0 6.312 6.312 0 0 0-6.309-6.3z" class="cls-1" data-name="Path 3" transform="translate(-175.217 -107.826)"/>
                    <path id="Path_4" d="M90.087 134.3a1.261 1.261 0 0 0 2.522 0 6.3 6.3 0 1 0-12.609 0 1.261 1.261 0 0 0 2.522 0 3.783 3.783 0 1 1 7.565 0z" class="cls-1" data-name="Path 4" transform="translate(-67.391 -107.826)"/>
                </g>
            </g>
        </g>
        <g id="smile-2" data-name="smile" transform="translate(56 1810)">
            <g id="Group_81-2" data-name="Group 81">
                <g id="Group_80-2" data-name="Group 80">
                    <path id="Path_1-2" d="M128.8 224.321a1.261 1.261 0 0 0-1.78.1 14.027 14.027 0 0 1-20.817 0 1.261 1.261 0 1 0-1.879 1.682 16.549 16.549 0 0 0 24.574 0 1.262 1.262 0 0 0-.098-1.782z" class="cls-1" data-name="Path 1" transform="translate(-87.609 -188.695)"/>
                    <path id="Path_2-2" d="M29 0a29 29 0 1 0 29 29A29.033 29.033 0 0 0 29 0zm0 55.478A26.478 26.478 0 1 1 55.478 29 26.507 26.507 0 0 1 29 55.478z" class="cls-1" data-name="Path 2"/>
                    <path id="Path_3-2" d="M214.3 128a6.311 6.311 0 0 0-6.3 6.3 1.261 1.261 0 0 0 2.522 0 3.783 3.783 0 0 1 7.565 0 1.261 1.261 0 0 0 2.522 0 6.312 6.312 0 0 0-6.309-6.3z" class="cls-1" data-name="Path 3" transform="translate(-175.217 -107.826)"/>
                    <path id="Path_4-2" d="M90.087 134.3a1.261 1.261 0 0 0 2.522 0 6.3 6.3 0 1 0-12.609 0 1.261 1.261 0 0 0 2.522 0 3.783 3.783 0 1 1 7.565 0z" class="cls-1" data-name="Path 4" transform="translate(-67.391 -107.826)"/>
                </g>
            </g>
        </g>
        <g id="smile-3" data-name="smile" transform="translate(141 1893)">
            <g id="Group_81-3" data-name="Group 81">
                <g id="Group_80-3" data-name="Group 80">
                    <path id="Path_1-3" d="M128.8 224.321a1.261 1.261 0 0 0-1.78.1 14.027 14.027 0 0 1-20.817 0 1.261 1.261 0 1 0-1.879 1.682 16.549 16.549 0 0 0 24.574 0 1.262 1.262 0 0 0-.098-1.782z" class="cls-1" data-name="Path 1" transform="translate(-87.609 -188.695)"/>
                    <path id="Path_2-3" d="M29 0a29 29 0 1 0 29 29A29.033 29.033 0 0 0 29 0zm0 55.478A26.478 26.478 0 1 1 55.478 29 26.507 26.507 0 0 1 29 55.478z" class="cls-1" data-name="Path 2"/>
                    <path id="Path_3-3" d="M214.3 128a6.311 6.311 0 0 0-6.3 6.3 1.261 1.261 0 0 0 2.522 0 3.783 3.783 0 0 1 7.565 0 1.261 1.261 0 0 0 2.522 0 6.312 6.312 0 0 0-6.309-6.3z" class="cls-1" data-name="Path 3" transform="translate(-175.217 -107.826)"/>
                    <path id="Path_4-3" d="M90.087 134.3a1.261 1.261 0 0 0 2.522 0 6.3 6.3 0 1 0-12.609 0 1.261 1.261 0 0 0 2.522 0 3.783 3.783 0 1 1 7.565 0z" class="cls-1" data-name="Path 4" transform="translate(-67.391 -107.826)"/>
                </g>
            </g>
        </g>
        <g id="smile-4" data-name="smile" transform="translate(319 1880)">
            <g id="Group_81-4" data-name="Group 81">
                <g id="Group_80-4" data-name="Group 80">
                    <path id="Path_1-4" d="M128.8 224.321a1.261 1.261 0 0 0-1.78.1 14.027 14.027 0 0 1-20.817 0 1.261 1.261 0 1 0-1.879 1.682 16.549 16.549 0 0 0 24.574 0 1.262 1.262 0 0 0-.098-1.782z" class="cls-1" data-name="Path 1" transform="translate(-87.609 -188.695)"/>
                    <path id="Path_2-4" d="M29 0a29 29 0 1 0 29 29A29.033 29.033 0 0 0 29 0zm0 55.478A26.478 26.478 0 1 1 55.478 29 26.507 26.507 0 0 1 29 55.478z" class="cls-1" data-name="Path 2"/>
                    <path id="Path_3-4" d="M214.3 128a6.311 6.311 0 0 0-6.3 6.3 1.261 1.261 0 0 0 2.522 0 3.783 3.783 0 0 1 7.565 0 1.261 1.261 0 0 0 2.522 0 6.312 6.312 0 0 0-6.309-6.3z" class="cls-1" data-name="Path 3" transform="translate(-175.217 -107.826)"/>
                    <path id="Path_4-4" d="M90.087 134.3a1.261 1.261 0 0 0 2.522 0 6.3 6.3 0 1 0-12.609 0 1.261 1.261 0 0 0 2.522 0 3.783 3.783 0 1 1 7.565 0z" class="cls-1" data-name="Path 4" transform="translate(-67.391 -107.826)"/>
                </g>
            </g>
        </g>
        <g id="smile-5" data-name="smile" transform="translate(391 1781)">
            <g id="Group_81-5" data-name="Group 81">
                <g id="Group_80-5" data-name="Group 80">
                    <path id="Path_1-5" d="M128.8 224.321a1.261 1.261 0 0 0-1.78.1 14.027 14.027 0 0 1-20.817 0 1.261 1.261 0 1 0-1.879 1.682 16.549 16.549 0 0 0 24.574 0 1.262 1.262 0 0 0-.098-1.782z" class="cls-1" data-name="Path 1" transform="translate(-87.609 -188.695)"/>
                    <path id="Path_2-5" d="M29 0a29 29 0 1 0 29 29A29.033 29.033 0 0 0 29 0zm0 55.478A26.478 26.478 0 1 1 55.478 29 26.507 26.507 0 0 1 29 55.478z" class="cls-1" data-name="Path 2"/>
                    <path id="Path_3-5" d="M214.3 128a6.311 6.311 0 0 0-6.3 6.3 1.261 1.261 0 0 0 2.522 0 3.783 3.783 0 0 1 7.565 0 1.261 1.261 0 0 0 2.522 0 6.312 6.312 0 0 0-6.309-6.3z" class="cls-1" data-name="Path 3" transform="translate(-175.217 -107.826)"/>
                    <path id="Path_4-5" d="M90.087 134.3a1.261 1.261 0 0 0 2.522 0 6.3 6.3 0 1 0-12.609 0 1.261 1.261 0 0 0 2.522 0 3.783 3.783 0 1 1 7.565 0z" class="cls-1" data-name="Path 4" transform="translate(-67.391 -107.826)"/>
                </g>
            </g>
        </g>
        <g id="smile-6" data-name="smile" transform="translate(490 1899)">
            <g id="Group_81-6" data-name="Group 81">
                <g id="Group_80-6" data-name="Group 80">
                    <path id="Path_1-6" d="M128.8 224.321a1.261 1.261 0 0 0-1.78.1 14.027 14.027 0 0 1-20.817 0 1.261 1.261 0 1 0-1.879 1.682 16.549 16.549 0 0 0 24.574 0 1.262 1.262 0 0 0-.098-1.782z" class="cls-1" data-name="Path 1" transform="translate(-87.609 -188.695)"/>
                    <path id="Path_2-6" d="M29 0a29 29 0 1 0 29 29A29.033 29.033 0 0 0 29 0zm0 55.478A26.478 26.478 0 1 1 55.478 29 26.507 26.507 0 0 1 29 55.478z" class="cls-1" data-name="Path 2"/>
                    <path id="Path_3-6" d="M214.3 128a6.311 6.311 0 0 0-6.3 6.3 1.261 1.261 0 0 0 2.522 0 3.783 3.783 0 0 1 7.565 0 1.261 1.261 0 0 0 2.522 0 6.312 6.312 0 0 0-6.309-6.3z" class="cls-1" data-name="Path 3" transform="translate(-175.217 -107.826)"/>
                    <path id="Path_4-6" d="M90.087 134.3a1.261 1.261 0 0 0 2.522 0 6.3 6.3 0 1 0-12.609 0 1.261 1.261 0 0 0 2.522 0 3.783 3.783 0 1 1 7.565 0z" class="cls-1" data-name="Path 4" transform="translate(-67.391 -107.826)"/>
                </g>
            </g>
        </g>
        <g id="smile-7" data-name="smile" transform="translate(553 1810)">
            <g id="Group_81-7" data-name="Group 81">
                <g id="Group_80-7" data-name="Group 80">
                    <path id="Path_1-7" d="M128.8 224.321a1.261 1.261 0 0 0-1.78.1 14.027 14.027 0 0 1-20.817 0 1.261 1.261 0 1 0-1.879 1.682 16.549 16.549 0 0 0 24.574 0 1.262 1.262 0 0 0-.098-1.782z" class="cls-1" data-name="Path 1" transform="translate(-87.609 -188.695)"/>
                    <path id="Path_2-7" d="M29 0a29 29 0 1 0 29 29A29.033 29.033 0 0 0 29 0zm0 55.478A26.478 26.478 0 1 1 55.478 29 26.507 26.507 0 0 1 29 55.478z" class="cls-1" data-name="Path 2"/>
                    <path id="Path_3-7" d="M214.3 128a6.311 6.311 0 0 0-6.3 6.3 1.261 1.261 0 0 0 2.522 0 3.783 3.783 0 0 1 7.565 0 1.261 1.261 0 0 0 2.522 0 6.312 6.312 0 0 0-6.309-6.3z" class="cls-1" data-name="Path 3" transform="translate(-175.217 -107.826)"/>
                    <path id="Path_4-7" d="M90.087 134.3a1.261 1.261 0 0 0 2.522 0 6.3 6.3 0 1 0-12.609 0 1.261 1.261 0 0 0 2.522 0 3.783 3.783 0 1 1 7.565 0z" class="cls-1" data-name="Path 4" transform="translate(-67.391 -107.826)"/>
                </g>
            </g>
        </g>
    </g>
</svg>
