<svg xmlns="http://www.w3.org/2000/svg" id="_004-twitter" width="35" height="35" data-name="004-twitter" viewBox="0 0 35 35">
    <defs>
        <style>
            .cls-1{fill:#65a2d9}.cls-2{fill:#fff}
        </style>
    </defs>
    <ellipse id="Ellipse_28" cx="17.5" cy="17.5" class="cls-1" data-name="Ellipse 28" rx="17.5" ry="17.5"/>
    <path id="Path_244" d="M129.181 136.052a7.919 7.919 0 0 1-1.381.466 4.305 4.305 0 0 0 1.137-1.81.226.226 0 0 0-.33-.263 7.968 7.968 0 0 1-2.112.872.533.533 0 0 1-.132.016.56.56 0 0 1-.37-.141 4.319 4.319 0 0 0-2.858-1.078 4.616 4.616 0 0 0-1.368.211 4.185 4.185 0 0 0-2.82 3.015 4.608 4.608 0 0 0-.1 1.59.155.155 0 0 1-.039.121.161.161 0 0 1-.119.054h-.015a11.325 11.325 0 0 1-7.784-4.159.226.226 0 0 0-.37.029 4.324 4.324 0 0 0 .7 5.25 3.872 3.872 0 0 1-.985-.382.226.226 0 0 0-.336.195 4.325 4.325 0 0 0 2.523 3.984h-.092a3.866 3.866 0 0 1-.728-.069.226.226 0 0 0-.258.291 4.328 4.328 0 0 0 3.419 2.944 7.97 7.97 0 0 1-4.464 1.356h-.5a.33.33 0 0 0-.323.25.342.342 0 0 0 .164.378 11.854 11.854 0 0 0 5.957 1.606 12.013 12.013 0 0 0 5.09-1.08 11.24 11.24 0 0 0 3.725-2.791 12.235 12.235 0 0 0 2.281-3.82 12.067 12.067 0 0 0 .775-4.18v-.066a.735.735 0 0 1 .275-.572 8.54 8.54 0 0 0 1.717-1.885.226.226 0 0 0-.279-.332z" class="cls-2" data-name="Path 244" transform="translate(-101.983 -124.946)"/>
</svg>
