<svg xmlns="http://www.w3.org/2000/svg" id="_002-viber" width="35" height="35" data-name="002-viber" viewBox="0 0 35 35">
    <defs>
        <style>
            .cls-1{fill:#6f3faa}.cls-2{fill:#fff}.cls-3{fill:#d1d1d1}
        </style>
    </defs>
    <ellipse id="Ellipse_26" cx="17.5" cy="17.5" class="cls-1" data-name="Ellipse 26" rx="17.5" ry="17.5"/>
    <g id="Group_228" data-name="Group 228" transform="translate(7.809 7.483)">
        <path id="Path_222" d="M133.183 114.285l-.006-.023a6.682 6.682 0 0 0-4.512-4.341h-.022a25.072 25.072 0 0 0-9.437 0h-.022a6.685 6.685 0 0 0-4.512 4.341l-.005.023a18.471 18.471 0 0 0 0 7.957l.005.023a6.74 6.74 0 0 0 4.263 4.277v2.11a.848.848 0 0 0 1.46.588l2.138-2.222c.464.026.928.04 1.392.04a25.158 25.158 0 0 0 4.718-.448h.022a6.682 6.682 0 0 0 4.512-4.341l.006-.023a18.472 18.472 0 0 0 0-7.961zm-1.692 7.574a5.054 5.054 0 0 1-3.185 3.05 23.368 23.368 0 0 1-5.019.406.118.118 0 0 0-.089.036l-1.561 1.6-1.66 1.7a.194.194 0 0 1-.335-.134v-3.5a.121.121 0 0 0-.1-.118 5.055 5.055 0 0 1-3.185-3.05 16.761 16.761 0 0 1 0-7.191 5.055 5.055 0 0 1 3.185-3.05 23.35 23.35 0 0 1 8.763 0 5.053 5.053 0 0 1 3.185 3.05 16.744 16.744 0 0 1 .001 7.201z" class="cls-2" data-name="Path 222" transform="translate(-114.234 -109.468)"/>
        <path id="Path_223" d="M190 183.1c-.2-.059-.382-.1-.555-.171a12.605 12.605 0 0 1-4.75-3.175 12.326 12.326 0 0 1-1.817-2.781c-.233-.474-.43-.967-.63-1.456a1.263 1.263 0 0 1 .37-1.244 2.921 2.921 0 0 1 .979-.735.628.628 0 0 1 .786.186 10.13 10.13 0 0 1 1.215 1.7.81.81 0 0 1-.227 1.1c-.092.062-.176.136-.261.206a.858.858 0 0 0-.2.208.57.57 0 0 0-.038.5 4.531 4.531 0 0 0 2.544 2.817 1.3 1.3 0 0 0 .652.158c.4-.047.528-.484.807-.712a.76.76 0 0 1 .916-.04c.294.186.579.386.863.588a9.844 9.844 0 0 1 .812.618.644.644 0 0 1 .193.8 2.7 2.7 0 0 1-1.158 1.276 2.8 2.8 0 0 1-.5.159c-.194-.066.171-.059-.001-.002z" class="cls-2" data-name="Path 223" transform="translate(-177.545 -169.092)"/>
        <path id="Path_224" d="M250.311 165.413a4.765 4.765 0 0 1 4.689 3.941c.07.4.1.8.127 1.2a.281.281 0 0 1-.264.331c-.188 0-.273-.155-.285-.324-.024-.334-.041-.669-.087-1a4.19 4.19 0 0 0-3.375-3.5c-.262-.047-.529-.059-.795-.087-.168-.018-.387-.028-.424-.236a.286.286 0 0 1 .283-.323h.136c2.34.064-.051-.002-.005-.002z" class="cls-2" data-name="Path 224" transform="translate(-240.615 -161.588)"/>
        <path id="Path_225" d="M259.744 187.121a1.067 1.067 0 0 1-.023.163.266.266 0 0 1-.5.027.707.707 0 0 1-.028-.227 2.841 2.841 0 0 0-.359-1.425 2.653 2.653 0 0 0-1.112-1.044 3.2 3.2 0 0 0-.887-.272c-.134-.022-.269-.035-.4-.054a.255.255 0 0 1-.242-.287.252.252 0 0 1 .281-.249 3.687 3.687 0 0 1 1.537.4 3.108 3.108 0 0 1 1.691 2.415c.007.049.019.1.023.147.009.122.015.244.024.4-.009.035-.014-.155-.005.006z" class="cls-2" data-name="Path 225" transform="translate(-246.484 -178.675)"/>
        <path id="Path_226" d="M263.142 204.573a.29.29 0 0 1-.322-.285 2.941 2.941 0 0 0-.055-.375 1.054 1.054 0 0 0-.389-.61 1.019 1.019 0 0 0-.317-.153c-.144-.042-.293-.03-.437-.065a.268.268 0 0 1-.218-.311.282.282 0 0 1 .3-.226 1.613 1.613 0 0 1 1.652 1.606.743.743 0 0 1 0 .228.233.233 0 0 1-.21.192c-.201.003.085-.007-.004-.001z" class="cls-2" data-name="Path 226" transform="translate(-251.34 -196.184)"/>
    </g>
    <path id="Path_228" d="M295.662 313.755c.17-.052-.2-.059 0 0z" class="cls-2" data-name="Path 228" transform="translate(-275.396 -292.268)"/>
    <path id="Path_229" d="M224.3 253.237a9.892 9.892 0 0 0-.812-.618c-.283-.2-.568-.4-.863-.588a.76.76 0 0 0-.916.04c-.279.228-.408.666-.807.712a1.3 1.3 0 0 1-.652-.158 4.218 4.218 0 0 1-1.852-1.474l-.968.858c.033.038.064.077.1.115a12.607 12.607 0 0 0 4.75 3.175c.173.072.359.112.555.171-.2-.059.17-.052 0 0a2.8 2.8 0 0 0 .5-.159 2.7 2.7 0 0 0 1.158-1.276.644.644 0 0 0-.193-.798z" class="cls-3" data-name="Path 229" transform="translate(-202.567 -233.982)"/>
    <g id="Group_229" data-name="Group 229" transform="translate(17.504 11.308)">
        <path id="Path_230" d="M256.07 165.427z" class="cls-2" data-name="Path 230" transform="translate(-256.064 -165.427)"/>
        <path id="Path_231" d="M256.072 165.426h.006c.13.005 2.247.063-.006 0z" class="cls-2" data-name="Path 231" transform="translate(-256.071 -165.426)"/>
    </g>
    <g id="Group_230" data-name="Group 230" transform="translate(19.618 12.704)">
        <path id="Path_232" d="M299.661 185.837l-.413.366a4.141 4.141 0 0 1 1.224 2.387c.046.331.063.666.087 1 .012.169.1.326.285.324a.281.281 0 0 0 .264-.331c-.031-.4-.056-.8-.127-1.2a4.709 4.709 0 0 0-1.32-2.546z" class="cls-3" data-name="Path 232" transform="translate(-298.41 -185.837)"/>
        <path id="Path_233" d="M288.394 198.644a3.131 3.131 0 0 0-.992-1.929l-.412.365a2.674 2.674 0 0 1 .539.655 2.841 2.841 0 0 1 .359 1.425.708.708 0 0 0 .028.227.266.266 0 0 0 .5-.027 1.073 1.073 0 0 0 .023-.163c0 .029-.009-.161 0 0-.009-.161-.015-.283-.024-.4-.001-.055-.015-.103-.021-.153z" class="cls-3" data-name="Path 233" transform="translate(-286.991 -195.971)"/>
    </g>
    <g id="Group_231" data-name="Group 231" transform="translate(19.54 15.864)">
        <path id="Path_234" d="M308.142 232.127z" class="cls-2" data-name="Path 234" transform="translate(-306.613 -232.061)"/>
        <path id="Path_235" d="M286.53 232.159h.009-.009z" class="cls-2" data-name="Path 235" transform="translate(-286.46 -232.15)"/>
        <path id="Path_236" d="M285.912 232.168h-.025c-.042 0-.087.002.025 0z" class="cls-2" data-name="Path 236" transform="translate(-285.842 -232.16)"/>
        <path id="Path_237" d="M286.881 232.157h-.009.009z" class="cls-2" data-name="Path 237" transform="translate(-286.802 -232.15)"/>
    </g>
    <path id="Path_238" d="M275.1 207.525l-.419.371a.999.999 0 0 1 .068.045 1.054 1.054 0 0 1 .389.61 2.97 2.97 0 0 1 .055.375.287.287 0 0 0 .3.284h.034a.233.233 0 0 0 .2-.19.744.744 0 0 0 0-.228 1.663 1.663 0 0 0-.627-1.267z" class="cls-3" data-name="Path 238" transform="translate(-255.909 -193.339)"/>
</svg>
