<svg xmlns="http://www.w3.org/2000/svg" id="Page-1" width="227.699" height="87.849" viewBox="0 0 227.699 87.849">
    <defs>
        <style>
            .cls-1{fill:#1e2730}.cls-2{fill:#19a79b}
        </style>
    </defs>
    <g id="Extra-large:-Desktops---12-col">
        <g id="amplitudo-logo">
            <path id="Shape" d="M20.75 76.837h-5.2v-3.571c-.6.453-1.2.956-1.8 1.459a16.475 16.475 0 0 1-1.9 1.357 10.568 10.568 0 0 1-2.3 1.006 10.121 10.121 0 0 1-2.9.4 6.879 6.879 0 0 1-2.75-.5 6.334 6.334 0 0 1-2.1-1.358 6.4 6.4 0 0 1-1.35-2.062A7.281 7.281 0 0 1 0 71a6.67 6.67 0 0 1 .65-3.017 8.444 8.444 0 0 1 1.8-2.413 12.339 12.339 0 0 1 2.7-1.911 32.247 32.247 0 0 1 3.25-1.506c1.15-.452 2.35-.8 3.55-1.156s2.4-.654 3.6-.956v-1.609a10.632 10.632 0 0 0-.35-3.017 5.162 5.162 0 0 0-1-1.961 4 4 0 0 0-1.6-1.107 6.618 6.618 0 0 0-2.1-.3 5.34 5.34 0 0 0-2.15.352 3.73 3.73 0 0 0-1.3.905 3.021 3.021 0 0 0-.65 1.256 7.217 7.217 0 0 0-.15 1.458 10.691 10.691 0 0 1-.1 1.308 2.665 2.665 0 0 1-.4 1.106 2.315 2.315 0 0 1-.8.754 2.426 2.426 0 0 1-1.25.3 2.726 2.726 0 0 1-1.1-.251 2.156 2.156 0 0 1-.85-.654 2.288 2.288 0 0 1-.55-.956 3.056 3.056 0 0 1-.2-1.204 4.054 4.054 0 0 1 .85-2.414 6.909 6.909 0 0 1 2.3-1.961 13.728 13.728 0 0 1 3.35-1.308 17.461 17.461 0 0 1 4-.452 15.682 15.682 0 0 1 4.35.5A7.566 7.566 0 0 1 18.7 52.2a5.052 5.052 0 0 1 1.6 2.212 8.6 8.6 0 0 1 .5 2.866v19.559zM15.55 61.6c-.75.251-1.5.5-2.3.805a19.51 19.51 0 0 0-2.35 1.056c-.75.4-1.5.8-2.2 1.257a13.722 13.722 0 0 0-1.85 1.408 7.365 7.365 0 0 0-1.25 1.609 3.684 3.684 0 0 0-.45 1.76 4.329 4.329 0 0 0 .35 1.81 5.915 5.915 0 0 0 .95 1.509 4.314 4.314 0 0 0 1.35 1 3.585 3.585 0 0 0 1.6.4 5.674 5.674 0 0 0 1.65-.252 9.909 9.909 0 0 0 1.55-.6 11.957 11.957 0 0 0 1.5-.9c.5-.352 1-.7 1.5-1.107V61.6z" class="cls-1"/>
            <path id="Shape-2" d="M27.65 50.638h5.15v4.877a17.989 17.989 0 0 1 2.25-2.061 25.069 25.069 0 0 1 2.55-1.71 15.479 15.479 0 0 1 2.65-1.207 7.977 7.977 0 0 1 2.5-.452 7.673 7.673 0 0 1 2.35.4 9.251 9.251 0 0 1 2.2 1.156 8.322 8.322 0 0 1 1.75 1.76 5.143 5.143 0 0 1 .95 2.215 8.984 8.984 0 0 1 1.8-2.162 14.888 14.888 0 0 1 2.5-1.76 14.725 14.725 0 0 1 2.9-1.207 10.33 10.33 0 0 1 3-.453 6.028 6.028 0 0 1 2.8.654 8.536 8.536 0 0 1 2.25 1.76 9.026 9.026 0 0 1 1.55 2.615 8.458 8.458 0 0 1 .55 3.168v18.505h-5.2V58.985a5.608 5.608 0 0 0-.4-2.062 5.694 5.694 0 0 0-1-1.709 4.434 4.434 0 0 0-1.5-1.207 3.679 3.679 0 0 0-1.8-.453 7.93 7.93 0 0 0-2.15.3 9.568 9.568 0 0 0-2.1.805 11.3 11.3 0 0 0-1.8 1.206 5.815 5.815 0 0 0-1.3 1.459v19.46h-5.15V59.035a6.841 6.841 0 0 0-.35-2.061 4.919 4.919 0 0 0-1.05-1.71 5.674 5.674 0 0 0-1.5-1.207 3.678 3.678 0 0 0-1.8-.452 7.5 7.5 0 0 0-2.05.3 14.42 14.42 0 0 0-2.05.805 11.707 11.707 0 0 0-1.85 1.207 9.671 9.671 0 0 0-1.45 1.408v19.46h-5.2z" class="cls-1" data-name="Shape"/>
            <path id="Shape-3" d="M73.3 50.638h5.15v5.33a20.821 20.821 0 0 1 1.75-2.011 18.95 18.95 0 0 1 2.1-1.911 12.652 12.652 0 0 1 2.55-1.408 8.65 8.65 0 0 1 3.05-.553 9.564 9.564 0 0 1 4.2.955 9.7 9.7 0 0 1 3.2 2.665 11.262 11.262 0 0 1 2.05 3.922 14.942 14.942 0 0 1 .75 4.773 19.01 19.01 0 0 1-.9 5.984 14.275 14.275 0 0 1-2.55 4.726 11.527 11.527 0 0 1-4 3.118 12.06 12.06 0 0 1-5.3 1.106c-.75 0-1.4-.05-2-.1-.6-.1-1.2-.2-1.75-.352a8.714 8.714 0 0 1-1.6-.6c-.5-.251-1.05-.553-1.55-.854v12.42H73.3zm5.15 19.108a4.786 4.786 0 0 0 .5 2.213 5.05 5.05 0 0 0 1.45 1.81 7.126 7.126 0 0 0 2.2 1.207 8.381 8.381 0 0 0 2.8.453 5.4 5.4 0 0 0 2.75-.755 7.456 7.456 0 0 0 2.25-2.112 10.336 10.336 0 0 0 1.5-3.268 15.708 15.708 0 0 0 .55-4.224 22.1 22.1 0 0 0-.5-5.079 12.7 12.7 0 0 0-1.4-3.621 6.333 6.333 0 0 0-2.15-2.162 5.539 5.539 0 0 0-2.7-.7 6.043 6.043 0 0 0-2.15.352 8.783 8.783 0 0 0-1.95.955 14.452 14.452 0 0 0-1.7 1.358 14.025 14.025 0 0 0-1.4 1.609v11.964z" class="cls-1" data-name="Shape"/>
            <path id="Shape-4" d="M108.4 76.837h-5.15V38.72l3.65-1.458h1.5z" class="cls-1" data-name="Shape"/>
            <path id="Shape-5" d="M117.45 37.262a2.916 2.916 0 0 1 1.15.2 4.317 4.317 0 0 1 .95.553 3.268 3.268 0 0 1 .65.805 2.147 2.147 0 0 1 0 2.011 2.594 2.594 0 0 1-.65.855 2.97 2.97 0 0 1-.95.553 3.39 3.39 0 0 1-2.3 0 5.9 5.9 0 0 1-.95-.553 2.77 2.77 0 0 1-.65-.855 2.147 2.147 0 0 1 0-2.011 2.552 2.552 0 0 1 .65-.805 2.969 2.969 0 0 1 .95-.553 3.081 3.081 0 0 1 1.15-.2zm-2.5 14.331l3.65-1.508h1.5v26.7h-5.15z" class="cls-1" data-name="Shape"/>
            <path id="Shape-6" d="M140.25 73.518a7.523 7.523 0 0 1-7 3.922 4.981 4.981 0 0 1-2.25-.453 4.35 4.35 0 0 1-1.6-1.257 6.208 6.208 0 0 1-.95-1.911 9.618 9.618 0 0 1-.3-2.514V52.85h-4.5v-1.307a7.076 7.076 0 0 0 3.6-.805 6.336 6.336 0 0 0 2.3-2.162 11.807 11.807 0 0 0 1.4-3.118q.525-1.811.9-3.771h1.5v8.951h5.85v2.212h-5.85v18.455a2.719 2.719 0 0 0 .2 1.106 2.761 2.761 0 0 0 1.5 1.509 2.675 2.675 0 0 0 1.1.2 3.437 3.437 0 0 0 1.6-.4 5.183 5.183 0 0 0 1.25-1.057z" class="cls-1" data-name="Shape"/>
            <path id="Shape-7" d="M148.55 50.638v18.6A4.082 4.082 0 0 0 149 71.1a5.7 5.7 0 0 0 1.2 1.509 6.212 6.212 0 0 0 1.8 1 6.6 6.6 0 0 0 2.25.4 4.248 4.248 0 0 0 1.65-.352 6.192 6.192 0 0 0 1.7-.906 13.435 13.435 0 0 0 1.6-1.357 6.361 6.361 0 0 0 1.2-1.66V50.638h5.15v26.2h-5.15v-4.929a9.561 9.561 0 0 1-1.7 2.112 15.165 15.165 0 0 1-2.25 1.76 10.81 10.81 0 0 1-2.45 1.156 7.054 7.054 0 0 1-2.4.4 7.606 7.606 0 0 1-3.2-.653 7.246 7.246 0 0 1-2.6-1.76 7.535 7.535 0 0 1-1.75-2.565 7.328 7.328 0 0 1-.65-3.168V50.587h5.15z" class="cls-1" data-name="Shape"/>
            <path id="Shape-8" d="M190.1 74.272a13.186 13.186 0 0 1-1.95 1.307 11.689 11.689 0 0 1-2.15.956 17.244 17.244 0 0 1-2.3.6 11.337 11.337 0 0 1-2.25.2 9.072 9.072 0 0 1-4.3-1.056 10.78 10.78 0 0 1-3.5-2.916 13.335 13.335 0 0 1-2.35-4.224 15.685 15.685 0 0 1-.85-5.079 11.984 11.984 0 0 1 .5-3.52 14.627 14.627 0 0 1 1.4-3.269 16.5 16.5 0 0 1 2.15-2.866 12.074 12.074 0 0 1 2.8-2.263 12.791 12.791 0 0 1 3.25-1.508 12.245 12.245 0 0 1 3.6-.553 7.6 7.6 0 0 1 3.3.653 11.6 11.6 0 0 1 2.65 1.76V38.72l3.6-1.509h1.5V77.39h-5.15v-3.118zm0-15.287a7.434 7.434 0 0 0-.55-2.816 7.547 7.547 0 0 0-1.5-2.162 6.7 6.7 0 0 0-2.1-1.408 5.655 5.655 0 0 0-2.35-.5 5.368 5.368 0 0 0-2.9.805 7.38 7.38 0 0 0-2.35 2.162 12.019 12.019 0 0 0-1.6 3.319 14.466 14.466 0 0 0-.6 4.274 15.786 15.786 0 0 0 .65 4.677 14.1 14.1 0 0 0 1.75 3.821 9.712 9.712 0 0 0 2.6 2.565 6.105 6.105 0 0 0 3.2.955 6.172 6.172 0 0 0 1.65-.2 8.3 8.3 0 0 0 1.55-.6 8.073 8.073 0 0 0 1.4-.855 11.817 11.817 0 0 0 1.15-1.006z" class="cls-1" data-name="Shape"/>
            <path id="Shape-9" d="M213.95 77.39a14.112 14.112 0 0 1-5.5-1.056 13.14 13.14 0 0 1-4.35-2.867 12.82 12.82 0 0 1-2.85-4.224 12.957 12.957 0 0 1-1.05-5.179 14.245 14.245 0 0 1 3.9-9.856 12.649 12.649 0 0 1 4.35-2.967 14.135 14.135 0 0 1 5.5-1.106 15.067 15.067 0 0 1 5.5 1.006 12.623 12.623 0 0 1 4.35 2.765 12.574 12.574 0 0 1 3.9 9.1 15 15 0 0 1-3.9 10.158 14.115 14.115 0 0 1-4.35 3.117 13.108 13.108 0 0 1-5.5 1.107m1-1.911a5.046 5.046 0 0 0 2.8-.8 8 8 0 0 0 2.2-2.112 9.938 9.938 0 0 0 1.45-3.117 13.463 13.463 0 0 0 .5-3.772 25.725 25.725 0 0 0-.5-5.33 13.387 13.387 0 0 0-1.6-4.325 7.955 7.955 0 0 0-2.85-2.916 8.143 8.143 0 0 0-4.3-1.056 4.969 4.969 0 0 0-2.55.754 8.324 8.324 0 0 0-2.15 2.062 10.943 10.943 0 0 0-1.5 3.067 12.874 12.874 0 0 0-.55 3.721 23.345 23.345 0 0 0 .6 5.381 15.671 15.671 0 0 0 1.75 4.375 9.368 9.368 0 0 0 2.8 2.967 7.169 7.169 0 0 0 3.9 1.106" class="cls-1" data-name="Shape"/>
            <path id="Shape-10" d="M154.25 15.84c-3.05 0-5.55 13.577-5.55 30.322h11.1c0-16.745-2.45-30.322-5.55-30.322" class="cls-2" data-name="Shape"/>
            <path id="Shape-11" d="M174.7 0c-6.1 0-11 20.667-11 46.162h22C185.7 20.667 180.75 0 174.7 0" class="cls-2" data-name="Shape"/>
            <path id="Shape-12" d="M141.7 28.613c-1.75 0-3.2 7.844-3.2 17.549h6.4c.05-9.7-1.4-17.549-3.2-17.549" class="cls-2" data-name="Shape"/>
        </g>
    </g>
</svg>
