<svg xmlns="http://www.w3.org/2000/svg" width="307.34" height="66.036" viewBox="0 0 307.34 66.036">
    <defs>
        <style>
            .cls-1{fill:#1a1818}.cls-2{fill:#00a1ed}.cls-3{fill:#818386}
        </style>
    </defs>
    <g id="Group_412" data-name="Group 412" transform="translate(-119.727 -232.917)">
        <path id="Path_411" d="M185.816 258.537a31.457 31.457 0 0 1 0 17.622h-62.743a31.47 31.47 0 0 1 0-17.622zm-22.464 23.626v17.719h-8.908a32.469 32.469 0 0 1-29.044-17.815c14.62 0 23.335.1 37.955.1m-8.908-47.349a32.561 32.561 0 0 1 29.048 17.719H125.4a32.56 32.56 0 0 1 29.048-17.719" class="cls-1" data-name="Path 411" transform="translate(-1.023 -.93)"/>
        <path id="Path_412" d="M183.728 256.639a31.457 31.457 0 0 1 0 17.622h-62.743a31.457 31.457 0 0 1 0-17.622zm-22.464 23.626v17.719h-8.908a32.561 32.561 0 0 1-29.048-17.719zm-8.908-47.349a32.471 32.471 0 0 1 29.044 17.817h-58.1a32.47 32.47 0 0 1 29.048-17.816" class="cls-2" data-name="Path 412"/>
        <path id="Path_413" d="M375.3 343.362V327.71h3.327v-2.252h-9.065v2.252h3.327v15.652zm-6.327 0v-2.252h-4.752v-6.052h4.359v-2.093h-4.359V327.6h4.752v-2.139h-7.163v17.9zm-11.512 0V327.71h3.327v-2.252h-9.065v2.252h3.327v15.652zm-4.017 0v-2.252H348.3v-15.652h-2.411v17.9zm-19-2.7a3.5 3.5 0 0 0 2.4 2.613 6.914 6.914 0 0 0 4.266 0 3.5 3.5 0 0 0 2.4-2.613 9.77 9.77 0 0 0 .19-2.054v-13.15h-2.366v13.353q0 2.5-2.354 2.5t-2.354-2.5v-13.353h-2.366v13.15a9.77 9.77 0 0 0 .19 2.054m-7.834 2.7v-9.169l4.177 9.169h2.6l-4.269-9.369 4.269-8.535h-2.555l-4.226 8.491v-8.491H324.2v17.9zm-6.912-5.528h-3.182l1.616-7.759zm-4.455 5.528l.832-3.526h4.064l.881 3.526h2.4l-4.162-17.9H317l-4.211 17.9zm-6.528 0v-8.236h4.513v-2.138h-4.513V327.6h4.906v-2.139H306.3v17.9zm-9.593-17.9h-2.412v17.9h2.412zm-10.214 17.9v-9.169l4.177 9.169h2.6l-4.27-9.369 4.27-8.535h-2.561l-4.226 8.491v-8.491h-2.412v17.9zm-11.47-.682a10 10 0 0 0 1.637.693 5.352 5.352 0 0 0 1.6.239 4.8 4.8 0 0 0 2.336-.662 4.23 4.23 0 0 0 1.637-1.742 4.985 4.985 0 0 0 .576-2.4 5.83 5.83 0 0 0-.331-1.914 4.965 4.965 0 0 0-.981-1.582 23.977 23.977 0 0 0-1.814-1.705l-1.03-.834a8.128 8.128 0 0 1-.815-.754 3.772 3.772 0 0 1-.606-.865 2.858 2.858 0 0 1-.27-1.227 2.324 2.324 0 0 1 .319-1.226 2.139 2.139 0 0 1 2.034-1.214 5.2 5.2 0 0 1 2.82.968v-2.4a7.19 7.19 0 0 0-3.1-.8 4.26 4.26 0 0 0-2.931 1.091 4.46 4.46 0 0 0-1.165 1.619 5.065 5.065 0 0 0-.392 1.987 5.519 5.519 0 0 0 .086 1.006 5.093 5.093 0 0 0 .914 2.03 10.735 10.735 0 0 0 1.736 1.8 25.825 25.825 0 0 1 2.379 2.158 2.761 2.761 0 0 1 .515 3.042 2.059 2.059 0 0 1-2.024 1.288 6.562 6.562 0 0 1-3.128-1.042zm-11.228.682l.736-12.552 2.353 12.552h1.667l2.353-12.552.736 12.552h2.255l-1.569-17.9h-2.117l-2.5 12.413-2.4-12.413h-2.21l-1.52 17.9zm-10.995-9.636q0-1.019.073-2.026a11.683 11.683 0 0 1 .332-2.026 4.092 4.092 0 0 1 .773-1.639 1.684 1.684 0 0 1 1.362-.62 2.761 2.761 0 0 1 .846.147q1.927.688 1.927 6.312 0 .589-.007.9t-.006.651q-.037 1.682-.147 2.8a5.182 5.182 0 0 1-.681 2.105 1.948 1.948 0 0 1-1.822.989 2.1 2.1 0 0 1-2.141-1.744 15 15 0 0 1-.509-4.175v-1.67zm-2.144 5.083a7.349 7.349 0 0 0 1.4 3.388 3.84 3.84 0 0 0 3.249 1.416 6.767 6.767 0 0 0 .835-.049 3.958 3.958 0 0 0 2.438-1.134 5.467 5.467 0 0 0 1.326-2.268 12.526 12.526 0 0 0 .5-2.66q.1-1.342.1-3.107a32.469 32.469 0 0 0-.233-4.167 7.677 7.677 0 0 0-1.2-3.254 3.825 3.825 0 0 0-2.937-1.7 6.776 6.776 0 0 0-.8-.045 4.136 4.136 0 0 0-2.689.846 4.916 4.916 0 0 0-1.535 2.224 11.868 11.868 0 0 0-.632 2.892q-.142 1.514-.141 3.253a27.893 27.893 0 0 0 .313 4.363m-9.041 4.553v-12.5l4.713 12.5h2.249v-17.9h-2.3v12.413l-4.713-12.413h-2.248v17.9zm-11.769-9.636q0-1.019.073-2.026a11.778 11.778 0 0 1 .332-2.026 4.1 4.1 0 0 1 .773-1.639 1.684 1.684 0 0 1 1.362-.62 2.76 2.76 0 0 1 .846.147q1.927.688 1.927 6.312 0 .589-.007.9t-.006.651q-.037 1.682-.148 2.8a5.182 5.182 0 0 1-.681 2.105 1.947 1.947 0 0 1-1.822.989 2.1 2.1 0 0 1-2.141-1.744 15.021 15.021 0 0 1-.509-4.175v-1.67zm-2.144 5.083a7.344 7.344 0 0 0 1.4 3.388 3.839 3.839 0 0 0 3.248 1.416 6.767 6.767 0 0 0 .835-.049 3.958 3.958 0 0 0 2.438-1.134 5.467 5.467 0 0 0 1.326-2.268 12.526 12.526 0 0 0 .5-2.66q.1-1.342.1-3.107a32.457 32.457 0 0 0-.234-4.167 7.67 7.67 0 0 0-1.2-3.254 3.825 3.825 0 0 0-2.937-1.7 6.775 6.775 0 0 0-.8-.045 4.134 4.134 0 0 0-2.689.846 4.907 4.907 0 0 0-1.535 2.224 11.845 11.845 0 0 0-.632 2.892q-.142 1.514-.141 3.253a27.893 27.893 0 0 0 .313 4.363m-6.638 4.553v-9.169l4.177 9.169h2.6l-4.27-9.369 4.27-8.535H227.7l-4.226 8.491v-8.491h-2.412v17.9zm-3.96 0v-2.248h-4.752v-6.052h4.359v-2.093h-4.359V327.6h4.752v-2.139h-7.163v17.9z" class="cls-1" data-name="Path 413" transform="translate(-45.372 -45.218)"/>
        <path id="Path_414" d="M632.867 337.812h-3.182l1.616-7.759zm-4.455 5.528l.832-3.526h4.064l.881 3.526h2.4l-4.161-17.9h-2.252l-4.211 17.9zm-2.7-2.722a9.1 9.1 0 0 1-1.175.5 3.186 3.186 0 0 1-1.016.172 2.615 2.615 0 0 1-1.187-.282 3.34 3.34 0 0 1-1.8-2.455 19.048 19.048 0 0 1-.4-4.125q0-1.51.1-2.633a7.426 7.426 0 0 1 .551-2.191 3.468 3.468 0 0 1 1.4-1.657 2.755 2.755 0 0 1 1.542-.466 4.952 4.952 0 0 1 1.983.514v-2.3a5.93 5.93 0 0 0-2.339-.489 4.931 4.931 0 0 0-2.069.441q-3.563 1.631-3.562 8.494 0 .81.037 1.508A20.979 20.979 0 0 0 618 338a11.521 11.521 0 0 0 .551 2.176 6.043 6.043 0 0 0 1.1 1.893 4.23 4.23 0 0 0 1.757 1.232 5.421 5.421 0 0 0 1.689.267 6.23 6.23 0 0 0 2.62-.608zm-9.749-15.182h-2.411v17.9h2.411zm-10.055 2.093a11.029 11.029 0 0 1 2.054.141 1.507 1.507 0 0 1 1.03.7 3.6 3.6 0 0 1 .341 1.809c0 .074 0 .136-.007.185s-.006.107-.006.172a3.146 3.146 0 0 1-.433 1.778 1.851 1.851 0 0 1-1.121.763 8.322 8.322 0 0 1-1.859.166zm.049 7.084l4.1 8.727h2.6l-4.272-8.829a3.659 3.659 0 0 0 2.6-1.428 5.341 5.341 0 0 0 .792-3.084 5.118 5.118 0 0 0-.643-2.771 3.347 3.347 0 0 0-1.819-1.4 9.36 9.36 0 0 0-2.928-.392H603.5v17.9h2.411v-8.727zm-11.977-.909q0-1.019.073-2.026a11.682 11.682 0 0 1 .332-2.026 4.093 4.093 0 0 1 .773-1.639 1.684 1.684 0 0 1 1.362-.62 2.759 2.759 0 0 1 .846.147q1.927.688 1.927 6.312 0 .589-.007.9t-.006.651q-.037 1.682-.147 2.8a5.191 5.191 0 0 1-.681 2.105 1.948 1.948 0 0 1-1.822.989 2.1 2.1 0 0 1-2.141-1.744 15 15 0 0 1-.509-4.175V333.7zm-2.144 5.083a7.351 7.351 0 0 0 1.4 3.388 3.84 3.84 0 0 0 3.249 1.416 6.767 6.767 0 0 0 .835-.049 3.956 3.956 0 0 0 2.438-1.134 5.462 5.462 0 0 0 1.327-2.268 12.488 12.488 0 0 0 .5-2.66q.1-1.342.1-3.107a32.456 32.456 0 0 0-.233-4.167 7.678 7.678 0 0 0-1.2-3.254 3.825 3.825 0 0 0-2.937-1.7 6.776 6.776 0 0 0-.8-.045 4.136 4.136 0 0 0-2.689.846 4.916 4.916 0 0 0-1.535 2.224 11.873 11.873 0 0 0-.632 2.892q-.141 1.514-.141 3.253a27.9 27.9 0 0 0 .313 4.363m-6.281-5.047v2.093h2.55a20.054 20.054 0 0 1-.153 2.7 4.124 4.124 0 0 1-.772 1.93 2.182 2.182 0 0 1-1.87.83 2.333 2.333 0 0 1-2.3-1.716 8.809 8.809 0 0 1-.447-2.256q-.092-1.238-.092-2.942-.024-.662-.024-1.238 0-4.953 1.989-5.578a3.751 3.751 0 0 1 .98-.147 2.226 2.226 0 0 1 1.691.7 3.8 3.8 0 0 1 .906 1.9l2.154-1.029a6.379 6.379 0 0 0-.875-1.979 3.746 3.746 0 0 0-1.524-1.256 3.97 3.97 0 0 0-1.136-.416 6.1 6.1 0 0 0-1.308-.147 5.137 5.137 0 0 0-2.666.662q-2.015 1.238-2.408 4.755a28.056 28.056 0 0 0 0 7.6 9.432 9.432 0 0 0 .721 2.806 4.281 4.281 0 0 0 1.7 1.949 4.908 4.908 0 0 0 2.5.611 6.539 6.539 0 0 0 1.521-.182 4.062 4.062 0 0 0 1.921-1.034 5.013 5.013 0 0 0 1.144-1.763 8.57 8.57 0 0 0 .526-2.142 21.847 21.847 0 0 0 .129-2.479q0-.882-.049-2.228zm-14.028-6.062q.269 0 .5-.006c.15 0 .352-.007.6-.007a3.439 3.439 0 0 1 2.569.8 3.774 3.774 0 0 1 .776 1.418 9.933 9.933 0 0 1 .392 1.866 18.259 18.259 0 0 1 .116 2.093q0 .9-.061 1.695a18.286 18.286 0 0 1-.184 2.228 5.47 5.47 0 0 1-.666 1.977 2.391 2.391 0 0 1-1.5 1.148 7.544 7.544 0 0 1-1.7.147h-.844zm.774 15.662a12.585 12.585 0 0 0 2.316-.19 4.261 4.261 0 0 0 1.8-.791 5.417 5.417 0 0 0 2.03-3.219 21.093 21.093 0 0 0 .472-4.727 25.736 25.736 0 0 0-.2-3.4 9 9 0 0 0-.827-2.778 4.846 4.846 0 0 0-1.387-1.733 4.705 4.705 0 0 0-1.85-.84 11.19 11.19 0 0 0-2.347-.221h-3.187v17.9zM559.6 333.7q0-1.019.073-2.026a11.732 11.732 0 0 1 .331-2.026 4.1 4.1 0 0 1 .773-1.639 1.684 1.684 0 0 1 1.362-.62 2.763 2.763 0 0 1 .846.147q1.927.688 1.927 6.312 0 .589-.007.9t-.006.651q-.037 1.682-.147 2.8a5.19 5.19 0 0 1-.681 2.105 1.948 1.948 0 0 1-1.822.989 2.1 2.1 0 0 1-2.141-1.744 15 15 0 0 1-.509-4.175V333.7zm-2.144 5.083a7.343 7.343 0 0 0 1.4 3.388 3.839 3.839 0 0 0 3.248 1.416 6.77 6.77 0 0 0 .836-.049 3.956 3.956 0 0 0 2.438-1.134 5.462 5.462 0 0 0 1.327-2.268 12.5 12.5 0 0 0 .5-2.66q.1-1.342.1-3.107a32.371 32.371 0 0 0-.234-4.167 7.669 7.669 0 0 0-1.2-3.254 3.825 3.825 0 0 0-2.937-1.7 6.782 6.782 0 0 0-.8-.045 4.136 4.136 0 0 0-2.689.846 4.916 4.916 0 0 0-1.535 2.224 11.847 11.847 0 0 0-.632 2.892q-.141 1.514-.141 3.253a27.885 27.885 0 0 0 .313 4.363m-7.586-11.258a11.494 11.494 0 0 1 2.16.154 2.018 2.018 0 0 1 1.231.778 3.282 3.282 0 0 1 .477 1.981 3.326 3.326 0 0 1-.459 1.964 1.9 1.9 0 0 1-1.212.76 12.759 12.759 0 0 1-2.2.142zm0 15.811v-7.894q.846 0 1.423-.031a8.891 8.891 0 0 0 1.214-.154 4.917 4.917 0 0 0 1.14-.355 3.648 3.648 0 0 0 1.876-1.736 5.745 5.745 0 0 0 .625-2.68 5.659 5.659 0 0 0-.982-3.337 3.362 3.362 0 0 0-1.909-1.386 10.727 10.727 0 0 0-2.854-.331h-2.946v17.9z" class="cls-3" data-name="Path 414" transform="translate(-209.522 -45.197)"/>
    </g>
</svg>
